<svg xmlns="http://www.w3.org/2000/svg" xmlns:xlink="http://www.w3.org/1999/xlink" width="40" zoomAndPan="magnify" viewBox="0 0 30 30.750001" height="41" preserveAspectRatio="xMidYMid meet" version="1.0"><defs><clipPath id="699abcc9ab"><path d="M 0.121094 0 L 29.878906 0 L 29.878906 29.757812 L 0.121094 29.757812 Z M 0.121094 0 " clip-rule="nonzero"/></clipPath><clipPath id="94005725c3"><path d="M 5.597656 5.773438 L 24.300781 5.773438 L 24.300781 24.476562 L 5.597656 24.476562 Z M 5.597656 5.773438 " clip-rule="nonzero"/></clipPath><clipPath id="485cb521c2"><path d="M 14.949219 5.773438 C 9.785156 5.773438 5.597656 9.960938 5.597656 15.125 C 5.597656 20.289062 9.785156 24.476562 14.949219 24.476562 C 20.113281 24.476562 24.300781 20.289062 24.300781 15.125 C 24.300781 9.960938 20.113281 5.773438 14.949219 5.773438 Z M 14.949219 5.773438 " clip-rule="nonzero"/></clipPath><clipPath id="c9533e318c"><path d="M 0.597656 0.773438 L 19.300781 0.773438 L 19.300781 19.476562 L 0.597656 19.476562 Z M 0.597656 0.773438 " clip-rule="nonzero"/></clipPath><clipPath id="f0e8c8c127"><path d="M 9.949219 0.773438 C 4.785156 0.773438 0.597656 4.960938 0.597656 10.125 C 0.597656 15.289062 4.785156 19.476562 9.949219 19.476562 C 15.113281 19.476562 19.300781 15.289062 19.300781 10.125 C 19.300781 4.960938 15.113281 0.773438 9.949219 0.773438 Z M 9.949219 0.773438 " clip-rule="nonzero"/></clipPath><clipPath id="a3536787ae"><rect x="0" width="20" y="0" height="20"/></clipPath><clipPath id="e1bd14b8a0"><path d="M 6.65625 7.269531 L 23.023438 7.269531 L 23.023438 22.894531 L 6.65625 22.894531 Z M 6.65625 7.269531 " clip-rule="nonzero"/></clipPath></defs><g clip-path="url(#699abcc9ab)"><path fill="#503be1" d="M 9.71875 0 L 20.28125 0 C 20.910156 0 21.535156 0.0625 22.152344 0.183594 C 22.769531 0.308594 23.371094 0.488281 23.953125 0.730469 C 24.535156 0.972656 25.089844 1.269531 25.613281 1.617188 C 26.136719 1.96875 26.621094 2.367188 27.066406 2.8125 C 27.511719 3.257812 27.910156 3.742188 28.261719 4.265625 C 28.613281 4.789062 28.90625 5.34375 29.148438 5.925781 C 29.390625 6.507812 29.570312 7.109375 29.695312 7.726562 C 29.816406 8.34375 29.878906 8.96875 29.878906 9.597656 L 29.878906 20.160156 C 29.878906 20.789062 29.816406 21.414062 29.695312 22.03125 C 29.570312 22.648438 29.390625 23.25 29.148438 23.832031 C 28.90625 24.414062 28.613281 24.96875 28.261719 25.492188 C 27.910156 26.015625 27.511719 26.5 27.066406 26.945312 C 26.621094 27.390625 26.136719 27.789062 25.613281 28.140625 C 25.089844 28.492188 24.535156 28.785156 23.953125 29.027344 C 23.371094 29.269531 22.769531 29.449219 22.152344 29.574219 C 21.535156 29.695312 20.910156 29.757812 20.28125 29.757812 L 9.71875 29.757812 C 9.089844 29.757812 8.464844 29.695312 7.847656 29.574219 C 7.230469 29.449219 6.628906 29.269531 6.046875 29.027344 C 5.464844 28.785156 4.910156 28.492188 4.386719 28.140625 C 3.863281 27.789062 3.378906 27.390625 2.933594 26.945312 C 2.488281 26.5 2.089844 26.015625 1.738281 25.492188 C 1.386719 24.96875 1.09375 24.414062 0.851562 23.832031 C 0.609375 23.25 0.429688 22.648438 0.304688 22.03125 C 0.183594 21.414062 0.121094 20.789062 0.121094 20.160156 L 0.121094 9.597656 C 0.121094 8.96875 0.183594 8.34375 0.304688 7.726562 C 0.429688 7.109375 0.609375 6.507812 0.851562 5.925781 C 1.09375 5.34375 1.386719 4.789062 1.738281 4.265625 C 2.089844 3.742188 2.488281 3.257812 2.933594 2.8125 C 3.378906 2.367188 3.863281 1.96875 4.386719 1.617188 C 4.910156 1.269531 5.464844 0.972656 6.046875 0.730469 C 6.628906 0.488281 7.230469 0.308594 7.847656 0.183594 C 8.464844 0.0625 9.089844 0 9.71875 0 Z M 9.71875 0 " fill-opacity="1" fill-rule="nonzero"/></g><path fill="#fffdfa" d="M 20.234375 12.894531 C 20.203125 12.835938 20.15625 12.792969 20.105469 12.757812 C 20.050781 12.726562 19.988281 12.710938 19.925781 12.710938 L 15.289062 12.710938 L 16.066406 6.640625 C 16.074219 6.558594 16.054688 6.476562 16.011719 6.410156 C 15.96875 6.339844 15.90625 6.289062 15.832031 6.261719 C 15.753906 6.234375 15.671875 6.234375 15.597656 6.257812 C 15.519531 6.285156 15.457031 6.335938 15.414062 6.40625 L 9.773438 16.5 C 9.738281 16.554688 9.722656 16.617188 9.71875 16.679688 C 9.71875 16.746094 9.734375 16.808594 9.765625 16.863281 C 9.796875 16.921875 9.839844 16.96875 9.894531 17 C 9.949219 17.03125 10.011719 17.050781 10.074219 17.050781 L 14.644531 17.050781 L 14.027344 23.128906 C 14.019531 23.207031 14.042969 23.289062 14.085938 23.355469 C 14.128906 23.421875 14.195312 23.472656 14.269531 23.5 C 14.34375 23.527344 14.425781 23.523438 14.5 23.496094 C 14.578125 23.46875 14.640625 23.417969 14.683594 23.347656 L 20.230469 13.257812 C 20.261719 13.203125 20.277344 13.140625 20.28125 13.074219 C 20.28125 13.011719 20.265625 12.949219 20.234375 12.894531 Z M 20.234375 12.894531 " fill-opacity="1" fill-rule="nonzero"/><g clip-path="url(#94005725c3)"><g clip-path="url(#485cb521c2)"><g transform="matrix(1, 0, 0, 1, 5, 5)"><g clip-path="url(#a3536787ae)"><g clip-path="url(#c9533e318c)"><g clip-path="url(#f0e8c8c127)"><path fill="#503be1" d="M 0.597656 0.773438 L 19.300781 0.773438 L 19.300781 19.476562 L 0.597656 19.476562 Z M 0.597656 0.773438 " fill-opacity="1" fill-rule="nonzero"/></g></g></g></g></g></g><g clip-path="url(#e1bd14b8a0)"><path fill="#fffdfa" d="M 6.726562 9.601562 C 6.726562 9.601562 6.679688 7.375 8.929688 7.375 C 11.175781 7.375 21.128906 7.445312 21.128906 7.445312 C 21.128906 7.445312 23.285156 7.464844 23.285156 9.625 C 23.285156 11.78125 23.285156 16.722656 23.285156 16.722656 C 23.285156 16.722656 23.332031 18.824219 21.1875 18.824219 L 20.386719 18.8125 L 20.386719 23.089844 L 17.183594 18.746094 L 8.941406 18.746094 C 8.941406 18.746094 6.800781 18.863281 6.800781 16.605469 C 6.800781 14.34375 6.726562 9.601562 6.726562 9.601562 Z M 12.609375 12.875 C 12.609375 12.179688 12.046875 11.617188 11.351562 11.617188 C 10.65625 11.617188 10.09375 12.179688 10.09375 12.875 C 10.09375 13.570312 10.65625 14.132812 11.351562 14.132812 C 12.046875 14.132812 12.609375 13.570312 12.609375 12.875 Z M 19.917969 12.875 C 19.917969 12.179688 19.355469 11.617188 18.660156 11.617188 C 17.964844 11.617188 17.402344 12.179688 17.402344 12.875 C 17.402344 13.570312 17.964844 14.132812 18.660156 14.132812 C 19.355469 14.132812 19.917969 13.570312 19.917969 12.875 Z M 16.265625 12.875 C 16.265625 12.179688 15.699219 11.617188 15.007812 11.617188 C 14.3125 11.617188 13.746094 12.179688 13.746094 12.875 C 13.746094 13.570312 14.3125 14.132812 15.007812 14.132812 C 15.699219 14.132812 16.265625 13.570312 16.265625 12.875 Z M 16.265625 12.875 " fill-opacity="1" fill-rule="nonzero"/></g></svg>