<svg xmlns="http://www.w3.org/2000/svg" xmlns:xlink="http://www.w3.org/1999/xlink" width="40" zoomAndPan="magnify" viewBox="0 0 30 30.750001" height="41" preserveAspectRatio="xMidYMid meet" version="1.0"><defs><clipPath id="a5af397db0"><path d="M 0.121094 0 L 29.878906 0 L 29.878906 29.757812 L 0.121094 29.757812 Z M 0.121094 0 " clip-rule="nonzero"/></clipPath><clipPath id="1a585d3bba"><path d="M 5.597656 5.773438 L 24.300781 5.773438 L 24.300781 24.476562 L 5.597656 24.476562 Z M 5.597656 5.773438 " clip-rule="nonzero"/></clipPath><clipPath id="f99a206f03"><path d="M 14.949219 5.773438 C 9.785156 5.773438 5.597656 9.960938 5.597656 15.125 C 5.597656 20.289062 9.785156 24.476562 14.949219 24.476562 C 20.113281 24.476562 24.300781 20.289062 24.300781 15.125 C 24.300781 9.960938 20.113281 5.773438 14.949219 5.773438 Z M 14.949219 5.773438 " clip-rule="nonzero"/></clipPath><clipPath id="3d0088afec"><path d="M 0.597656 0.773438 L 19.300781 0.773438 L 19.300781 19.476562 L 0.597656 19.476562 Z M 0.597656 0.773438 " clip-rule="nonzero"/></clipPath><clipPath id="9b908ec7a7"><path d="M 9.949219 0.773438 C 4.785156 0.773438 0.597656 4.960938 0.597656 10.125 C 0.597656 15.289062 4.785156 19.476562 9.949219 19.476562 C 15.113281 19.476562 19.300781 15.289062 19.300781 10.125 C 19.300781 4.960938 15.113281 0.773438 9.949219 0.773438 Z M 9.949219 0.773438 " clip-rule="nonzero"/></clipPath><clipPath id="361ec63239"><rect x="0" width="20" y="0" height="20"/></clipPath><clipPath id="450dadd9b1"><path d="M 7.015625 5.898438 L 22.640625 5.898438 L 22.640625 24.5 L 7.015625 24.5 Z M 7.015625 5.898438 " clip-rule="nonzero"/></clipPath></defs><g clip-path="url(#a5af397db0)"><path fill="#503be1" d="M 9.71875 0 L 20.28125 0 C 20.910156 0 21.535156 0.0625 22.152344 0.183594 C 22.769531 0.308594 23.371094 0.488281 23.953125 0.730469 C 24.535156 0.972656 25.089844 1.269531 25.613281 1.617188 C 26.136719 1.96875 26.621094 2.367188 27.066406 2.8125 C 27.511719 3.257812 27.910156 3.742188 28.261719 4.265625 C 28.613281 4.789062 28.90625 5.34375 29.148438 5.925781 C 29.390625 6.507812 29.570312 7.109375 29.695312 7.726562 C 29.816406 8.34375 29.878906 8.96875 29.878906 9.597656 L 29.878906 20.160156 C 29.878906 20.789062 29.816406 21.414062 29.695312 22.03125 C 29.570312 22.648438 29.390625 23.25 29.148438 23.832031 C 28.90625 24.414062 28.613281 24.96875 28.261719 25.492188 C 27.910156 26.015625 27.511719 26.5 27.066406 26.945312 C 26.621094 27.390625 26.136719 27.789062 25.613281 28.140625 C 25.089844 28.492188 24.535156 28.785156 23.953125 29.027344 C 23.371094 29.269531 22.769531 29.449219 22.152344 29.574219 C 21.535156 29.695312 20.910156 29.757812 20.28125 29.757812 L 9.71875 29.757812 C 9.089844 29.757812 8.464844 29.695312 7.847656 29.574219 C 7.230469 29.449219 6.628906 29.269531 6.046875 29.027344 C 5.464844 28.785156 4.910156 28.492188 4.386719 28.140625 C 3.863281 27.789062 3.378906 27.390625 2.933594 26.945312 C 2.488281 26.5 2.089844 26.015625 1.738281 25.492188 C 1.386719 24.96875 1.09375 24.414062 0.851562 23.832031 C 0.609375 23.25 0.429688 22.648438 0.304688 22.03125 C 0.183594 21.414062 0.121094 20.789062 0.121094 20.160156 L 0.121094 9.597656 C 0.121094 8.96875 0.183594 8.34375 0.304688 7.726562 C 0.429688 7.109375 0.609375 6.507812 0.851562 5.925781 C 1.09375 5.34375 1.386719 4.789062 1.738281 4.265625 C 2.089844 3.742188 2.488281 3.257812 2.933594 2.8125 C 3.378906 2.367188 3.863281 1.96875 4.386719 1.617188 C 4.910156 1.269531 5.464844 0.972656 6.046875 0.730469 C 6.628906 0.488281 7.230469 0.308594 7.847656 0.183594 C 8.464844 0.0625 9.089844 0 9.71875 0 Z M 9.71875 0 " fill-opacity="1" fill-rule="nonzero"/></g><path fill="#fffdfa" d="M 20.234375 12.894531 C 20.203125 12.835938 20.15625 12.792969 20.105469 12.757812 C 20.050781 12.726562 19.988281 12.710938 19.925781 12.710938 L 15.289062 12.710938 L 16.066406 6.640625 C 16.074219 6.558594 16.054688 6.476562 16.011719 6.410156 C 15.96875 6.339844 15.90625 6.289062 15.832031 6.261719 C 15.753906 6.234375 15.671875 6.234375 15.597656 6.257812 C 15.519531 6.285156 15.457031 6.335938 15.414062 6.40625 L 9.773438 16.5 C 9.738281 16.554688 9.722656 16.617188 9.71875 16.679688 C 9.71875 16.746094 9.734375 16.808594 9.765625 16.863281 C 9.796875 16.921875 9.839844 16.96875 9.894531 17 C 9.949219 17.03125 10.011719 17.050781 10.074219 17.050781 L 14.644531 17.050781 L 14.027344 23.128906 C 14.019531 23.207031 14.042969 23.289062 14.085938 23.355469 C 14.128906 23.421875 14.195312 23.472656 14.269531 23.5 C 14.34375 23.527344 14.425781 23.523438 14.5 23.496094 C 14.578125 23.46875 14.640625 23.417969 14.683594 23.347656 L 20.230469 13.257812 C 20.261719 13.203125 20.277344 13.140625 20.28125 13.074219 C 20.28125 13.011719 20.265625 12.949219 20.234375 12.894531 Z M 20.234375 12.894531 " fill-opacity="1" fill-rule="nonzero"/><g clip-path="url(#1a585d3bba)"><g clip-path="url(#f99a206f03)"><g transform="matrix(1, 0, 0, 1, 5, 5)"><g clip-path="url(#361ec63239)"><g clip-path="url(#3d0088afec)"><g clip-path="url(#9b908ec7a7)"><path fill="#503be1" d="M 0.597656 0.773438 L 19.300781 0.773438 L 19.300781 19.476562 L 0.597656 19.476562 Z M 0.597656 0.773438 " fill-opacity="1" fill-rule="nonzero"/></g></g></g></g></g></g><g clip-path="url(#450dadd9b1)"><path fill="#fffdfa" d="M 16.871094 21.722656 C 16.085938 22.164062 15.21875 22.476562 14.296875 22.636719 L 14.039062 22.683594 L 13.785156 22.636719 C 9.894531 21.960938 7.015625 18.542969 7.015625 14.589844 L 7.015625 8.910156 L 14.039062 5.898438 L 21.066406 8.910156 L 21.066406 14.28125 C 20.792969 14.273438 20.664062 14.28125 20.550781 14.242188 C 20.421875 14.195312 20.320312 14.085938 20.035156 13.878906 C 19.898438 13.777344 19.753906 13.707031 19.605469 13.660156 L 19.605469 10.25 C 19.605469 10 19.457031 9.777344 19.230469 9.679688 L 14.285156 7.5625 C 14.128906 7.496094 13.953125 7.496094 13.796875 7.5625 L 8.851562 9.679688 C 8.625 9.777344 8.476562 10 8.476562 10.25 L 8.476562 14.515625 C 8.476562 17.707031 10.792969 20.480469 13.925781 21.058594 C 14 21.074219 14.078125 21.074219 14.152344 21.058594 C 14.753906 20.949219 15.320312 20.757812 15.851562 20.5 C 15.925781 20.546875 16.003906 20.589844 16.085938 20.625 C 16.414062 20.761719 16.558594 20.792969 16.664062 20.878906 C 16.734375 20.9375 16.785156 21.019531 16.871094 21.160156 Z M 15.40625 20.027344 C 14.976562 20.21875 14.519531 20.363281 14.039062 20.453125 C 11.195312 19.925781 9.097656 17.410156 9.097656 14.515625 L 9.097656 10.25 L 14.039062 8.128906 L 18.984375 10.25 L 18.984375 13.617188 C 18.769531 13.652344 18.554688 13.738281 18.367188 13.878906 C 18.082031 14.085938 17.980469 14.195312 17.851562 14.242188 C 17.722656 14.285156 17.574219 14.269531 17.21875 14.289062 C 16.585938 14.324219 16.078125 14.746094 15.933594 15.351562 C 15.851562 15.6875 15.847656 15.832031 15.777344 15.949219 C 15.710938 16.0625 15.585938 16.140625 15.328125 16.378906 C 14.859375 16.804688 14.746094 17.460938 15.035156 18.019531 C 15.191406 18.328125 15.285156 18.445312 15.308594 18.574219 C 15.332031 18.703125 15.285156 18.839844 15.242188 19.183594 C 15.207031 19.488281 15.265625 19.777344 15.40625 20.027344 Z M 13.457031 14.632812 L 12.464844 13.636719 C 12.207031 13.382812 11.789062 13.382812 11.53125 13.636719 C 11.277344 13.898438 11.277344 14.3125 11.53125 14.570312 L 12.992188 16.03125 C 13.25 16.289062 13.667969 16.289062 13.925781 16.03125 C 14.804688 15.152344 15.675781 14.261719 16.550781 13.378906 C 16.808594 13.117188 16.808594 12.703125 16.550781 12.445312 C 16.292969 12.191406 15.875 12.191406 15.617188 12.449219 Z M 20.910156 21.832031 L 20.910156 24.382812 C 20.910156 24.460938 20.867188 24.53125 20.792969 24.5625 C 20.722656 24.589844 20.640625 24.574219 20.585938 24.523438 L 19.199219 23.183594 L 17.816406 24.523438 C 17.761719 24.574219 17.679688 24.589844 17.609375 24.5625 C 17.535156 24.53125 17.488281 24.460938 17.488281 24.382812 L 17.488281 21.832031 C 17.8125 22.015625 18.203125 22.066406 18.589844 21.953125 C 18.929688 21.851562 19.0625 21.785156 19.199219 21.785156 C 19.335938 21.785156 19.46875 21.851562 19.8125 21.953125 C 20.195312 22.066406 20.589844 22.015625 20.910156 21.832031 Z M 19.667969 14.375 C 20.402344 14.914062 20.234375 14.855469 21.148438 14.90625 C 21.5 14.925781 21.785156 15.160156 21.867188 15.496094 C 22.074219 16.371094 21.988281 16.21875 22.65625 16.835938 C 22.910156 17.070312 22.976562 17.429688 22.816406 17.738281 C 22.40625 18.539062 22.433594 18.367188 22.542969 19.257812 C 22.585938 19.601562 22.398438 19.917969 22.074219 20.054688 C 21.234375 20.40625 21.367188 20.296875 20.867188 21.046875 C 20.675781 21.335938 20.324219 21.460938 19.988281 21.359375 C 19.113281 21.101562 19.289062 21.101562 18.414062 21.359375 C 18.074219 21.460938 17.726562 21.335938 17.53125 21.046875 C 17.03125 20.296875 17.167969 20.40625 16.324219 20.054688 C 16 19.917969 15.816406 19.601562 15.855469 19.257812 C 15.964844 18.367188 15.996094 18.539062 15.582031 17.738281 C 15.425781 17.429688 15.488281 17.070312 15.746094 16.835938 C 16.414062 16.21875 16.324219 16.371094 16.535156 15.496094 C 16.613281 15.160156 16.898438 14.925781 17.25 14.90625 C 18.164062 14.855469 18 14.914062 18.734375 14.375 C 19.015625 14.167969 19.386719 14.167969 19.667969 14.375 Z M 19.199219 19.949219 C 20.40625 19.949219 21.386719 18.988281 21.386719 17.808594 C 21.386719 16.628906 20.40625 15.664062 19.199219 15.664062 C 17.996094 15.664062 17.015625 16.628906 17.015625 17.808594 C 17.015625 18.988281 17.996094 19.949219 19.199219 19.949219 Z M 19.199219 19.949219 " fill-opacity="1" fill-rule="evenodd"/></g></svg>