<svg xmlns="http://www.w3.org/2000/svg" xmlns:xlink="http://www.w3.org/1999/xlink" width="40" zoomAndPan="magnify" viewBox="0 0 30 30.750001" height="41" preserveAspectRatio="xMidYMid meet" version="1.0"><defs><clipPath id="ede8ccf88c"><path d="M 0.121094 0.320312 L 29.878906 0.320312 L 29.878906 30.078125 L 0.121094 30.078125 Z M 0.121094 0.320312 " clip-rule="nonzero"/></clipPath><clipPath id="19d506feeb"><path d="M 5.597656 5.773438 L 24.300781 5.773438 L 24.300781 24.476562 L 5.597656 24.476562 Z M 5.597656 5.773438 " clip-rule="nonzero"/></clipPath><clipPath id="71441c90a5"><path d="M 14.949219 5.773438 C 9.785156 5.773438 5.597656 9.960938 5.597656 15.125 C 5.597656 20.289062 9.785156 24.476562 14.949219 24.476562 C 20.113281 24.476562 24.300781 20.289062 24.300781 15.125 C 24.300781 9.960938 20.113281 5.773438 14.949219 5.773438 Z M 14.949219 5.773438 " clip-rule="nonzero"/></clipPath><clipPath id="c66bdc10a6"><path d="M 0.597656 0.773438 L 19.300781 0.773438 L 19.300781 19.476562 L 0.597656 19.476562 Z M 0.597656 0.773438 " clip-rule="nonzero"/></clipPath><clipPath id="706815d3d4"><path d="M 9.949219 0.773438 C 4.785156 0.773438 0.597656 4.960938 0.597656 10.125 C 0.597656 15.289062 4.785156 19.476562 9.949219 19.476562 C 15.113281 19.476562 19.300781 15.289062 19.300781 10.125 C 19.300781 4.960938 15.113281 0.773438 9.949219 0.773438 Z M 9.949219 0.773438 " clip-rule="nonzero"/></clipPath><clipPath id="73b3ef8d3b"><rect x="0" width="20" y="0" height="20"/></clipPath><clipPath id="f59253b6a1"><path d="M 4.242188 10.40625 L 25.816406 10.40625 L 25.816406 20.078125 L 4.242188 20.078125 Z M 4.242188 10.40625 " clip-rule="nonzero"/></clipPath></defs><g clip-path="url(#ede8ccf88c)"><path fill="#6e5afd" d="M 15 0.320312 C 15.976562 0.320312 16.945312 0.414062 17.902344 0.605469 C 18.859375 0.796875 19.792969 1.078125 20.695312 1.449219 C 21.597656 1.824219 22.453125 2.285156 23.265625 2.824219 C 24.078125 3.367188 24.832031 3.984375 25.519531 4.675781 C 26.210938 5.367188 26.828125 6.117188 27.371094 6.929688 C 27.914062 7.742188 28.371094 8.601562 28.746094 9.503906 C 29.121094 10.40625 29.402344 11.335938 29.59375 12.292969 C 29.785156 13.253906 29.878906 14.21875 29.878906 15.199219 C 29.878906 16.175781 29.785156 17.140625 29.59375 18.101562 C 29.402344 19.058594 29.121094 19.988281 28.746094 20.890625 C 28.371094 21.792969 27.914062 22.652344 27.371094 23.464844 C 26.828125 24.277344 26.210938 25.027344 25.519531 25.71875 C 24.832031 26.410156 24.078125 27.027344 23.265625 27.570312 C 22.453125 28.113281 21.597656 28.570312 20.695312 28.945312 C 19.792969 29.316406 18.859375 29.601562 17.902344 29.789062 C 16.945312 29.980469 15.976562 30.078125 15 30.078125 C 14.023438 30.078125 13.054688 29.980469 12.097656 29.789062 C 11.140625 29.601562 10.207031 29.316406 9.304688 28.945312 C 8.402344 28.570312 7.546875 28.113281 6.734375 27.570312 C 5.921875 27.027344 5.167969 26.410156 4.480469 25.71875 C 3.789062 25.027344 3.171875 24.277344 2.628906 23.464844 C 2.085938 22.652344 1.628906 21.792969 1.253906 20.890625 C 0.878906 19.988281 0.597656 19.058594 0.40625 18.101562 C 0.214844 17.140625 0.121094 16.175781 0.121094 15.199219 C 0.121094 14.21875 0.214844 13.253906 0.40625 12.292969 C 0.597656 11.335938 0.878906 10.40625 1.253906 9.503906 C 1.628906 8.601562 2.085938 7.742188 2.628906 6.929688 C 3.171875 6.117188 3.789062 5.367188 4.480469 4.675781 C 5.167969 3.984375 5.921875 3.367188 6.734375 2.824219 C 7.546875 2.285156 8.402344 1.824219 9.304688 1.449219 C 10.207031 1.078125 11.140625 0.796875 12.097656 0.605469 C 13.054688 0.414062 14.023438 0.320312 15 0.320312 Z M 15 0.320312 " fill-opacity="1" fill-rule="nonzero"/></g><path fill="#ffffff" d="M 11.339844 19.261719 C 11.207031 19.261719 11.070312 19.234375 10.945312 19.183594 C 10.820312 19.128906 10.707031 19.054688 10.613281 18.957031 L 7.863281 16.210938 C 7.765625 16.113281 7.691406 16 7.640625 15.875 C 7.585938 15.75 7.558594 15.617188 7.558594 15.480469 C 7.558594 15.34375 7.585938 15.210938 7.640625 15.085938 C 7.691406 14.960938 7.765625 14.847656 7.863281 14.75 L 10.613281 12 C 10.804688 11.808594 11.066406 11.699219 11.339844 11.699219 C 11.613281 11.699219 11.878906 11.808594 12.070312 12 C 12.265625 12.195312 12.371094 12.457031 12.371094 12.730469 C 12.371094 13.003906 12.265625 13.265625 12.070312 13.460938 L 10.050781 15.480469 L 12.070312 17.5 C 12.214844 17.644531 12.3125 17.828125 12.351562 18.027344 C 12.390625 18.226562 12.371094 18.433594 12.292969 18.625 C 12.214844 18.8125 12.082031 18.972656 11.914062 19.085938 C 11.746094 19.199219 11.546875 19.261719 11.339844 19.261719 Z M 11.339844 19.261719 " fill-opacity="1" fill-rule="nonzero"/><path fill="#ffffff" d="M 19.589844 19.261719 C 19.386719 19.261719 19.183594 19.199219 19.015625 19.085938 C 18.847656 18.972656 18.714844 18.8125 18.636719 18.625 C 18.558594 18.433594 18.539062 18.226562 18.578125 18.027344 C 18.617188 17.828125 18.714844 17.644531 18.859375 17.5 L 20.878906 15.480469 L 18.859375 13.460938 C 18.765625 13.363281 18.6875 13.25 18.636719 13.125 C 18.585938 13 18.558594 12.867188 18.558594 12.730469 C 18.558594 12.59375 18.585938 12.460938 18.636719 12.335938 C 18.6875 12.210938 18.765625 12.097656 18.859375 12 C 19.054688 11.808594 19.316406 11.699219 19.589844 11.699219 C 19.722656 11.699219 19.859375 11.726562 19.984375 11.777344 C 20.109375 11.828125 20.222656 11.90625 20.316406 12 L 23.066406 14.75 C 23.164062 14.847656 23.238281 14.960938 23.289062 15.085938 C 23.34375 15.210938 23.371094 15.34375 23.371094 15.480469 C 23.371094 15.617188 23.34375 15.75 23.289062 15.875 C 23.238281 16 23.164062 16.113281 23.066406 16.210938 L 20.316406 18.957031 C 20.222656 19.054688 20.109375 19.128906 19.984375 19.183594 C 19.859375 19.234375 19.722656 19.261719 19.589844 19.261719 Z M 19.589844 19.261719 " fill-opacity="1" fill-rule="nonzero"/><path fill="#ffffff" d="M 14.089844 21.320312 C 13.996094 21.320312 13.898438 21.308594 13.804688 21.28125 C 13.542969 21.207031 13.320312 21.03125 13.1875 20.792969 C 13.054688 20.550781 13.023438 20.269531 13.097656 20.007812 L 15.847656 10.386719 C 15.882812 10.253906 15.945312 10.128906 16.027344 10.019531 C 16.113281 9.910156 16.214844 9.820312 16.335938 9.753906 C 16.453125 9.683594 16.585938 9.640625 16.722656 9.625 C 16.859375 9.609375 16.996094 9.621094 17.128906 9.65625 C 17.257812 9.695312 17.382812 9.757812 17.488281 9.84375 C 17.597656 9.929688 17.683594 10.035156 17.75 10.15625 C 17.816406 10.277344 17.855469 10.410156 17.871094 10.546875 C 17.882812 10.683594 17.871094 10.820312 17.832031 10.953125 L 15.082031 20.574219 C 15.019531 20.789062 14.890625 20.980469 14.710938 21.113281 C 14.53125 21.25 14.3125 21.320312 14.089844 21.320312 Z M 14.089844 21.320312 " fill-opacity="1" fill-rule="nonzero"/><g clip-path="url(#19d506feeb)"><g clip-path="url(#71441c90a5)"><g transform="matrix(1, 0, 0, 1, 5, 5)"><g clip-path="url(#73b3ef8d3b)"><g clip-path="url(#c66bdc10a6)"><g clip-path="url(#706815d3d4)"><path fill="#6e5afd" d="M 0.597656 0.773438 L 19.300781 0.773438 L 19.300781 19.476562 L 0.597656 19.476562 Z M 0.597656 0.773438 " fill-opacity="1" fill-rule="nonzero"/></g></g></g></g></g></g><g clip-path="url(#f59253b6a1)"><path fill="#ffffff" d="M 22.089844 20.089844 L 7.792969 20.089844 C 7.730469 20.089844 7.667969 20.0625 7.617188 20.015625 L 4.316406 16.675781 C 4.265625 16.628906 4.242188 16.566406 4.242188 16.503906 L 4.242188 14.007812 C 4.242188 13.929688 4.265625 13.867188 4.316406 13.832031 L 7.617188 10.480469 C 7.667969 10.445312 7.730469 10.40625 7.792969 10.40625 L 22.089844 10.40625 C 22.164062 10.40625 22.226562 10.429688 22.277344 10.480469 L 25.578125 13.816406 C 25.628906 13.867188 25.652344 13.929688 25.652344 13.992188 L 25.652344 16.503906 C 25.652344 16.566406 25.628906 16.628906 25.578125 16.675781 L 22.277344 20.015625 C 22.226562 20.0625 22.164062 20.089844 22.089844 20.089844 Z M 11.730469 15.5 L 10.976562 15.5 L 10.976562 18.132812 C 10.976562 18.269531 10.863281 18.382812 10.726562 18.382812 C 10.589844 18.382812 10.476562 18.269531 10.476562 18.132812 L 10.476562 12.375 C 10.476562 12.238281 10.589844 12.125 10.726562 12.125 L 11.730469 12.125 C 12.371094 12.125 12.933594 12.6875 12.933594 13.328125 L 12.933594 14.292969 C 12.933594 14.683594 12.746094 15.023438 12.457031 15.246094 C 12.746094 15.472656 12.933594 15.824219 12.933594 16.214844 L 12.933594 18.132812 C 12.933594 18.269531 12.820312 18.382812 12.683594 18.382812 C 12.546875 18.382812 12.433594 18.269531 12.433594 18.132812 L 12.433594 16.214844 C 12.433594 15.785156 12.070312 15.5 11.730469 15.5 Z M 23.972656 16.125 C 23.496094 16.125 23.09375 15.722656 23.09375 15.246094 C 23.09375 14.769531 23.496094 14.371094 23.972656 14.371094 C 24.449219 14.371094 24.851562 14.769531 24.851562 15.246094 C 24.851562 15.722656 24.449219 16.125 23.972656 16.125 Z M 23.972656 14.871094 C 23.785156 14.871094 23.59375 15.058594 23.59375 15.246094 C 23.59375 15.449219 23.785156 15.625 23.972656 15.625 C 24.171875 15.625 24.347656 15.449219 24.347656 15.246094 C 24.347656 15.058594 24.171875 14.871094 23.972656 14.871094 Z M 5.910156 16.125 C 5.433594 16.125 5.03125 15.722656 5.03125 15.246094 C 5.03125 14.769531 5.433594 14.371094 5.910156 14.371094 C 6.386719 14.371094 6.789062 14.769531 6.789062 15.246094 C 6.789062 15.722656 6.386719 16.125 5.910156 16.125 Z M 5.910156 14.871094 C 5.722656 14.871094 5.535156 15.058594 5.535156 15.246094 C 5.535156 15.449219 5.722656 15.625 5.910156 15.625 C 6.109375 15.625 6.285156 15.449219 6.285156 15.246094 C 6.285156 15.058594 6.109375 14.871094 5.910156 14.871094 Z M 20.925781 18.382812 L 19.957031 18.382812 C 19.820312 18.382812 19.707031 18.269531 19.707031 18.132812 L 19.707031 12.375 C 19.707031 12.238281 19.820312 12.125 19.957031 12.125 L 20.925781 12.125 C 21.574219 12.125 22.140625 12.675781 22.140625 13.328125 L 22.140625 17.167969 C 22.140625 17.832031 21.574219 18.382812 20.925781 18.382812 Z M 20.210938 17.882812 L 20.925781 17.882812 C 21.351562 17.882812 21.640625 17.503906 21.640625 17.167969 L 21.640625 13.328125 C 21.640625 12.988281 21.351562 12.613281 20.925781 12.613281 L 20.210938 12.613281 Z M 19.167969 18.382812 C 19.082031 18.382812 18.992188 18.320312 18.941406 18.246094 L 16.535156 13.429688 L 16.535156 18.132812 C 16.535156 18.269531 16.421875 18.382812 16.28125 18.382812 C 16.144531 18.382812 16.03125 18.269531 16.03125 18.132812 L 16.03125 12.375 C 16.03125 12.25 16.109375 12.148438 16.21875 12.125 C 16.332031 12.097656 16.457031 12.164062 16.507812 12.261719 L 18.917969 17.066406 L 18.917969 12.375 C 18.917969 12.238281 19.03125 12.125 19.167969 12.125 C 19.304688 12.125 19.417969 12.238281 19.417969 12.375 L 19.417969 18.132812 C 19.417969 18.246094 19.34375 18.347656 19.230469 18.371094 C 19.207031 18.382812 19.191406 18.382812 19.167969 18.382812 Z M 8.96875 18.382812 L 8.003906 18.382812 C 7.867188 18.382812 7.753906 18.269531 7.753906 18.132812 L 7.753906 12.375 C 7.753906 12.238281 7.867188 12.125 8.003906 12.125 L 8.96875 12.125 C 9.621094 12.125 10.175781 12.675781 10.175781 13.328125 L 10.175781 14.292969 C 10.175781 14.683594 10 15.035156 9.722656 15.246094 C 10 15.472656 10.175781 15.8125 10.175781 16.199219 L 10.175781 17.167969 C 10.175781 17.832031 9.621094 18.382812 8.96875 18.382812 Z M 8.253906 17.882812 L 8.96875 17.882812 C 9.398438 17.882812 9.671875 17.503906 9.671875 17.167969 L 9.671875 16.199219 C 9.671875 15.824219 9.410156 15.523438 9.035156 15.5 C 9.007812 15.5 8.984375 15.5 8.96875 15.5 L 8.253906 15.5 Z M 8.921875 14.996094 C 8.933594 14.996094 8.945312 14.996094 8.96875 14.996094 C 8.984375 14.996094 9.007812 14.996094 9.035156 14.996094 C 9.410156 14.972656 9.671875 14.671875 9.671875 14.292969 L 9.671875 13.328125 C 9.671875 12.988281 9.398438 12.613281 8.96875 12.613281 L 8.253906 12.613281 L 8.253906 14.996094 Z M 15.242188 16 L 13.738281 16 L 13.738281 18.132812 C 13.738281 18.269531 13.625 18.382812 13.484375 18.382812 C 13.347656 18.382812 13.234375 18.269531 13.234375 18.132812 L 13.234375 13.378906 C 13.234375 12.703125 13.800781 12.125 14.488281 12.125 C 15.167969 12.125 15.742188 12.6875 15.742188 13.378906 L 15.742188 18.132812 C 15.742188 18.269531 15.632812 18.382812 15.492188 18.382812 C 15.355469 18.382812 15.242188 18.269531 15.242188 18.132812 Z M 13.738281 15.5 L 15.242188 15.5 L 15.242188 13.378906 C 15.242188 12.964844 14.890625 12.625 14.488281 12.625 C 14.074219 12.625 13.738281 12.964844 13.738281 13.378906 Z M 10.976562 14.996094 L 11.730469 14.996094 C 12.070312 14.996094 12.433594 14.722656 12.433594 14.292969 L 12.433594 13.328125 C 12.433594 12.964844 12.09375 12.613281 11.730469 12.613281 L 10.976562 12.613281 Z M 10.976562 14.996094 " fill-opacity="1" fill-rule="evenodd"/></g></svg>