<svg xmlns="http://www.w3.org/2000/svg" xmlns:xlink="http://www.w3.org/1999/xlink" width="40" zoomAndPan="magnify" viewBox="0 0 30 30.750001" height="41" preserveAspectRatio="xMidYMid meet" version="1.0"><defs><clipPath id="d3e0866253"><path d="M 0.121094 0 L 29.878906 0 L 29.878906 29.757812 L 0.121094 29.757812 Z M 0.121094 0 " clip-rule="nonzero"/></clipPath><clipPath id="383d0e2458"><path d="M 5.597656 5.773438 L 24.300781 5.773438 L 24.300781 24.476562 L 5.597656 24.476562 Z M 5.597656 5.773438 " clip-rule="nonzero"/></clipPath><clipPath id="6a2d374ce4"><path d="M 14.949219 5.773438 C 9.785156 5.773438 5.597656 9.960938 5.597656 15.125 C 5.597656 20.289062 9.785156 24.476562 14.949219 24.476562 C 20.113281 24.476562 24.300781 20.289062 24.300781 15.125 C 24.300781 9.960938 20.113281 5.773438 14.949219 5.773438 Z M 14.949219 5.773438 " clip-rule="nonzero"/></clipPath><clipPath id="75584b5665"><path d="M 0.597656 0.773438 L 19.300781 0.773438 L 19.300781 19.476562 L 0.597656 19.476562 Z M 0.597656 0.773438 " clip-rule="nonzero"/></clipPath><clipPath id="bd4d697bc2"><path d="M 9.949219 0.773438 C 4.785156 0.773438 0.597656 4.960938 0.597656 10.125 C 0.597656 15.289062 4.785156 19.476562 9.949219 19.476562 C 15.113281 19.476562 19.300781 15.289062 19.300781 10.125 C 19.300781 4.960938 15.113281 0.773438 9.949219 0.773438 Z M 9.949219 0.773438 " clip-rule="nonzero"/></clipPath><clipPath id="6c7966bcf7"><rect x="0" width="20" y="0" height="20"/></clipPath><clipPath id="342cdc6f01"><path d="M 6.589844 6.65625 L 23.699219 6.65625 L 23.699219 23.769531 L 6.589844 23.769531 Z M 6.589844 6.65625 " clip-rule="nonzero"/></clipPath></defs><g clip-path="url(#d3e0866253)"><path fill="#503be1" d="M 9.71875 0 L 20.28125 0 C 20.910156 0 21.535156 0.0625 22.152344 0.183594 C 22.769531 0.308594 23.371094 0.488281 23.953125 0.730469 C 24.535156 0.972656 25.089844 1.269531 25.613281 1.617188 C 26.136719 1.96875 26.621094 2.367188 27.066406 2.8125 C 27.511719 3.257812 27.910156 3.742188 28.261719 4.265625 C 28.613281 4.789062 28.90625 5.34375 29.148438 5.925781 C 29.390625 6.507812 29.570312 7.109375 29.695312 7.726562 C 29.816406 8.34375 29.878906 8.96875 29.878906 9.597656 L 29.878906 20.160156 C 29.878906 20.789062 29.816406 21.414062 29.695312 22.03125 C 29.570312 22.648438 29.390625 23.25 29.148438 23.832031 C 28.90625 24.414062 28.613281 24.96875 28.261719 25.492188 C 27.910156 26.015625 27.511719 26.5 27.066406 26.945312 C 26.621094 27.390625 26.136719 27.789062 25.613281 28.140625 C 25.089844 28.492188 24.535156 28.785156 23.953125 29.027344 C 23.371094 29.269531 22.769531 29.449219 22.152344 29.574219 C 21.535156 29.695312 20.910156 29.757812 20.28125 29.757812 L 9.71875 29.757812 C 9.089844 29.757812 8.464844 29.695312 7.847656 29.574219 C 7.230469 29.449219 6.628906 29.269531 6.046875 29.027344 C 5.464844 28.785156 4.910156 28.492188 4.386719 28.140625 C 3.863281 27.789062 3.378906 27.390625 2.933594 26.945312 C 2.488281 26.5 2.089844 26.015625 1.738281 25.492188 C 1.386719 24.96875 1.09375 24.414062 0.851562 23.832031 C 0.609375 23.25 0.429688 22.648438 0.304688 22.03125 C 0.183594 21.414062 0.121094 20.789062 0.121094 20.160156 L 0.121094 9.597656 C 0.121094 8.96875 0.183594 8.34375 0.304688 7.726562 C 0.429688 7.109375 0.609375 6.507812 0.851562 5.925781 C 1.09375 5.34375 1.386719 4.789062 1.738281 4.265625 C 2.089844 3.742188 2.488281 3.257812 2.933594 2.8125 C 3.378906 2.367188 3.863281 1.96875 4.386719 1.617188 C 4.910156 1.269531 5.464844 0.972656 6.046875 0.730469 C 6.628906 0.488281 7.230469 0.308594 7.847656 0.183594 C 8.464844 0.0625 9.089844 0 9.71875 0 Z M 9.71875 0 " fill-opacity="1" fill-rule="nonzero"/></g><path fill="#fffdfa" d="M 20.234375 12.894531 C 20.203125 12.835938 20.15625 12.792969 20.105469 12.757812 C 20.050781 12.726562 19.988281 12.710938 19.925781 12.710938 L 15.289062 12.710938 L 16.066406 6.640625 C 16.074219 6.558594 16.054688 6.476562 16.011719 6.410156 C 15.96875 6.339844 15.90625 6.289062 15.832031 6.261719 C 15.753906 6.234375 15.671875 6.234375 15.597656 6.257812 C 15.519531 6.285156 15.457031 6.335938 15.414062 6.40625 L 9.773438 16.5 C 9.738281 16.554688 9.722656 16.617188 9.71875 16.679688 C 9.71875 16.746094 9.734375 16.808594 9.765625 16.863281 C 9.796875 16.921875 9.839844 16.96875 9.894531 17 C 9.949219 17.03125 10.011719 17.050781 10.074219 17.050781 L 14.644531 17.050781 L 14.027344 23.128906 C 14.019531 23.207031 14.042969 23.289062 14.085938 23.355469 C 14.128906 23.421875 14.195312 23.472656 14.269531 23.5 C 14.34375 23.527344 14.425781 23.523438 14.5 23.496094 C 14.578125 23.46875 14.640625 23.417969 14.683594 23.347656 L 20.230469 13.257812 C 20.261719 13.203125 20.277344 13.140625 20.28125 13.074219 C 20.28125 13.011719 20.265625 12.949219 20.234375 12.894531 Z M 20.234375 12.894531 " fill-opacity="1" fill-rule="nonzero"/><g clip-path="url(#383d0e2458)"><g clip-path="url(#6a2d374ce4)"><g transform="matrix(1, 0, 0, 1, 5, 5)"><g clip-path="url(#6c7966bcf7)"><g clip-path="url(#75584b5665)"><g clip-path="url(#bd4d697bc2)"><path fill="#503be1" d="M 0.597656 0.773438 L 19.300781 0.773438 L 19.300781 19.476562 L 0.597656 19.476562 Z M 0.597656 0.773438 " fill-opacity="1" fill-rule="nonzero"/></g></g></g></g></g></g><g clip-path="url(#342cdc6f01)"><path fill="#fffdfa" d="M 20.863281 18.5 L 19.949219 18.773438 L 15.59375 16.308594 C 13.488281 17.496094 12.386719 18.359375 11.097656 16.953125 C 11.753906 16.707031 12.960938 15.890625 14.035156 14.90625 C 15.355469 15.300781 16.757812 14.851562 17.609375 13.816406 C 18.199219 13.984375 18.8125 14.171875 19.503906 14.105469 Z M 15 8.859375 C 13.453125 8.859375 12.195312 10.113281 12.195312 11.660156 C 12.195312 13.207031 13.453125 14.460938 15 14.460938 C 16.546875 14.460938 17.800781 13.207031 17.800781 11.660156 C 17.800781 10.113281 16.546875 8.859375 15 8.859375 Z M 14.707031 6.949219 C 14.707031 6.789062 14.839844 6.65625 15 6.65625 C 15.160156 6.65625 15.292969 6.789062 15.292969 6.949219 L 15.292969 7.898438 C 15.292969 8.058594 15.160156 8.191406 15 8.191406 C 14.839844 8.191406 14.707031 8.058594 14.707031 7.898438 Z M 11.460938 8.535156 C 11.347656 8.421875 11.347656 8.238281 11.460938 8.121094 C 11.574219 8.007812 11.761719 8.007812 11.875 8.121094 L 12.546875 8.792969 C 12.660156 8.90625 12.660156 9.09375 12.546875 9.207031 C 12.429688 9.320312 12.246094 9.320312 12.132812 9.207031 Z M 10.289062 11.953125 C 10.128906 11.953125 9.996094 11.820312 9.996094 11.660156 C 9.996094 11.5 10.128906 11.367188 10.289062 11.367188 L 11.238281 11.367188 C 11.398438 11.367188 11.527344 11.5 11.527344 11.660156 C 11.527344 11.820312 11.398438 11.953125 11.238281 11.953125 Z M 19.710938 11.367188 C 19.871094 11.367188 20 11.5 20 11.660156 C 20 11.820312 19.871094 11.953125 19.710938 11.953125 L 18.761719 11.953125 C 18.601562 11.953125 18.46875 11.820312 18.46875 11.660156 C 18.46875 11.5 18.601562 11.367188 18.761719 11.367188 Z M 18.125 8.121094 C 18.238281 8.007812 18.421875 8.007812 18.535156 8.121094 C 18.652344 8.238281 18.652344 8.421875 18.535156 8.535156 L 17.867188 9.207031 C 17.753906 9.320312 17.566406 9.320312 17.453125 9.207031 C 17.339844 9.09375 17.339844 8.90625 17.453125 8.792969 Z M 13.550781 11.867188 C 13.433594 11.75 13.4375 11.566406 13.550781 11.453125 C 13.664062 11.339844 13.847656 11.339844 13.960938 11.453125 L 14.582031 12.078125 L 16.035156 10.625 C 16.152344 10.511719 16.335938 10.511719 16.449219 10.625 C 16.5625 10.738281 16.5625 10.921875 16.449219 11.039062 L 14.789062 12.695312 C 14.683594 12.808594 14.492188 12.8125 14.378906 12.695312 Z M 13.957031 22.457031 L 13.808594 22.667969 C 13.597656 22.980469 13.65625 23.394531 13.964844 23.617188 C 14.265625 23.839844 14.6875 23.769531 14.902344 23.464844 L 15.058594 23.242188 C 15.277344 22.9375 15.207031 22.511719 14.902344 22.292969 C 14.597656 22.070312 14.175781 22.148438 13.957031 22.457031 Z M 12.753906 21.570312 C 12.992188 21.234375 13.460938 21.15625 13.792969 21.398438 C 14.125 21.640625 14.199219 22.113281 13.964844 22.445312 L 13.542969 23.042969 C 13.304688 23.375 12.839844 23.453125 12.507812 23.210938 C 12.175781 22.96875 12.097656 22.5 12.335938 22.164062 L 12.125 22.457031 C 11.859375 22.832031 11.339844 22.917969 10.964844 22.648438 C 10.59375 22.378906 10.507812 21.847656 10.773438 21.472656 L 11.402344 20.585938 C 11.667969 20.210938 12.191406 20.125 12.5625 20.394531 C 12.964844 20.6875 13 21.222656 12.753906 21.570312 Z M 10.882812 21.320312 L 11.402344 20.585938 C 11.640625 20.25 11.5625 19.777344 11.230469 19.539062 C 10.898438 19.296875 10.429688 19.371094 10.195312 19.707031 L 9.675781 20.441406 C 9.4375 20.777344 9.496094 21.277344 9.847656 21.488281 C 10.199219 21.703125 10.644531 21.65625 10.882812 21.320312 Z M 16.597656 22.339844 C 17.699219 22.953125 18.304688 22.023438 18 21.417969 C 19.3125 21.984375 19.664062 20.632812 19.1875 20.214844 C 19.878906 20.363281 20.335938 19.832031 20.242188 19.296875 L 19.878906 19.40625 L 15.59375 16.980469 C 14.898438 17.382812 13.953125 17.960938 13.191406 18.167969 C 12.171875 18.441406 11.371094 18.117188 10.667969 17.347656 L 10.082031 16.710938 L 10.894531 16.40625 C 11.632812 16.128906 12.820312 15.203125 13.433594 14.664062 C 13.054688 14.464844 12.714844 14.195312 12.4375 13.875 C 11.847656 13.972656 11.261719 14.085938 10.527344 13.90625 L 9.136719 18.40625 C 9.46875 18.671875 9.667969 18.929688 9.847656 19.210938 C 10.300781 18.75 11.035156 18.671875 11.574219 19.066406 C 11.785156 19.21875 11.9375 19.425781 12.027344 19.652344 C 12.675781 19.628906 13.253906 20.054688 13.4375 20.675781 C 13.980469 20.707031 14.445312 21.070312 14.617188 21.585938 C 15.464844 21.652344 16.003906 22.550781 15.671875 23.34375 C 16.390625 23.40625 16.859375 22.851562 16.597656 22.339844 Z M 7.699219 12.332031 L 10.167969 13.097656 L 8.40625 18.789062 L 6.601562 18.234375 Z M 22.300781 12.425781 L 19.832031 13.1875 L 21.589844 18.882812 L 23.398438 18.324219 Z M 22.300781 12.425781 " fill-opacity="1" fill-rule="evenodd"/></g></svg>