<svg xmlns="http://www.w3.org/2000/svg" xmlns:xlink="http://www.w3.org/1999/xlink" width="40" zoomAndPan="magnify" viewBox="0 0 30 30.750001" height="41" preserveAspectRatio="xMidYMid meet" version="1.0"><defs><clipPath id="233754d85d"><path d="M 0.121094 0 L 29.878906 0 L 29.878906 30.503906 L 0.121094 30.503906 Z M 0.121094 0 " clip-rule="nonzero"/></clipPath><clipPath id="17714b0c17"><path d="M 5.597656 5.773438 L 24.300781 5.773438 L 24.300781 24.476562 L 5.597656 24.476562 Z M 5.597656 5.773438 " clip-rule="nonzero"/></clipPath><clipPath id="74c307dc14"><path d="M 14.949219 5.773438 C 9.785156 5.773438 5.597656 9.960938 5.597656 15.125 C 5.597656 20.289062 9.785156 24.476562 14.949219 24.476562 C 20.113281 24.476562 24.300781 20.289062 24.300781 15.125 C 24.300781 9.960938 20.113281 5.773438 14.949219 5.773438 Z M 14.949219 5.773438 " clip-rule="nonzero"/></clipPath><clipPath id="4702a90b78"><path d="M 0.597656 0.773438 L 19.300781 0.773438 L 19.300781 19.476562 L 0.597656 19.476562 Z M 0.597656 0.773438 " clip-rule="nonzero"/></clipPath><clipPath id="c27f2e79c9"><path d="M 9.949219 0.773438 C 4.785156 0.773438 0.597656 4.960938 0.597656 10.125 C 0.597656 15.289062 4.785156 19.476562 9.949219 19.476562 C 15.113281 19.476562 19.300781 15.289062 19.300781 10.125 C 19.300781 4.960938 15.113281 0.773438 9.949219 0.773438 Z M 9.949219 0.773438 " clip-rule="nonzero"/></clipPath><clipPath id="8ae6eb261b"><rect x="0" width="20" y="0" height="20"/></clipPath><clipPath id="d6644d6096"><path d="M 5.546875 6.269531 L 24.144531 6.269531 L 24.144531 24 L 5.546875 24 Z M 5.546875 6.269531 " clip-rule="nonzero"/></clipPath></defs><g clip-path="url(#233754d85d)"><path fill="#ff83af" d="M 15 0.542969 C 15.976562 0.542969 16.945312 0.640625 17.902344 0.828125 C 18.859375 1.019531 19.792969 1.296875 20.695312 1.671875 C 21.597656 2.042969 22.453125 2.496094 23.265625 3.035156 C 24.078125 3.574219 24.832031 4.1875 25.519531 4.875 C 26.210938 5.5625 26.828125 6.308594 27.371094 7.117188 C 27.914062 7.921875 28.371094 8.773438 28.746094 9.671875 C 29.121094 10.570312 29.402344 11.492188 29.59375 12.445312 C 29.785156 13.398438 29.878906 14.359375 29.878906 15.332031 C 29.878906 16.300781 29.785156 17.261719 29.59375 18.214844 C 29.402344 19.167969 29.121094 20.09375 28.746094 20.988281 C 28.371094 21.886719 27.914062 22.738281 27.371094 23.546875 C 26.828125 24.351562 26.210938 25.097656 25.519531 25.785156 C 24.832031 26.472656 24.078125 27.085938 23.265625 27.625 C 22.453125 28.164062 21.597656 28.621094 20.695312 28.992188 C 19.792969 29.363281 18.859375 29.644531 17.902344 29.832031 C 16.945312 30.023438 15.976562 30.117188 15 30.117188 C 14.023438 30.117188 13.054688 30.023438 12.097656 29.832031 C 11.140625 29.644531 10.207031 29.363281 9.304688 28.992188 C 8.402344 28.621094 7.546875 28.164062 6.734375 27.625 C 5.921875 27.085938 5.167969 26.472656 4.480469 25.785156 C 3.789062 25.097656 3.171875 24.351562 2.628906 23.546875 C 2.085938 22.738281 1.628906 21.886719 1.253906 20.988281 C 0.878906 20.09375 0.597656 19.167969 0.40625 18.214844 C 0.214844 17.261719 0.121094 16.300781 0.121094 15.332031 C 0.121094 14.359375 0.214844 13.398438 0.40625 12.445312 C 0.597656 11.492188 0.878906 10.570312 1.253906 9.671875 C 1.628906 8.773438 2.085938 7.921875 2.628906 7.117188 C 3.171875 6.308594 3.789062 5.5625 4.480469 4.875 C 5.167969 4.1875 5.921875 3.574219 6.734375 3.035156 C 7.546875 2.496094 8.402344 2.042969 9.304688 1.671875 C 10.207031 1.296875 11.140625 1.019531 12.097656 0.828125 C 13.054688 0.640625 14.023438 0.542969 15 0.542969 Z M 15 0.542969 " fill-opacity="1" fill-rule="nonzero"/></g><path fill="#fffdfa" d="M 22.441406 15.332031 C 22.441406 13.292969 20.785156 11.632812 18.75 11.632812 C 17.765625 11.632812 16.839844 12.019531 16.144531 12.714844 L 12.390625 16.476562 C 12.085938 16.785156 11.679688 16.953125 11.25 16.953125 C 10.355469 16.953125 9.628906 16.226562 9.628906 15.332031 C 9.628906 14.4375 10.355469 13.707031 11.25 13.707031 C 11.679688 13.707031 12.085938 13.875 12.390625 14.183594 L 12.921875 14.710938 L 14.382812 13.246094 L 13.855469 12.714844 C 13.160156 12.019531 12.234375 11.632812 11.25 11.632812 C 9.214844 11.632812 7.558594 13.292969 7.558594 15.332031 C 7.558594 17.367188 9.214844 19.027344 11.25 19.027344 C 12.234375 19.027344 13.160156 18.640625 13.855469 17.945312 L 17.609375 14.183594 C 17.914062 13.875 18.320312 13.707031 18.75 13.707031 C 19.644531 13.707031 20.371094 14.4375 20.371094 15.332031 C 20.371094 16.226562 19.644531 16.953125 18.75 16.953125 C 18.320312 16.953125 17.914062 16.785156 17.609375 16.476562 L 17.078125 15.949219 L 15.617188 17.414062 L 16.144531 17.945312 C 16.839844 18.640625 17.765625 19.027344 18.75 19.027344 C 20.785156 19.027344 22.441406 17.367188 22.441406 15.332031 Z M 22.441406 15.332031 " fill-opacity="1" fill-rule="nonzero"/><g clip-path="url(#17714b0c17)"><g clip-path="url(#74c307dc14)"><g transform="matrix(1, 0, 0, 1, 5, 5)"><g clip-path="url(#8ae6eb261b)"><g clip-path="url(#4702a90b78)"><g clip-path="url(#c27f2e79c9)"><path fill="#ff83af" d="M 0.597656 0.773438 L 19.300781 0.773438 L 19.300781 19.476562 L 0.597656 19.476562 Z M 0.597656 0.773438 " fill-opacity="1" fill-rule="nonzero"/></g></g></g></g></g></g><g clip-path="url(#d6644d6096)"><path fill="#fffdfa" d="M 14.109375 9.609375 L 17.21875 18.179688 C 17.257812 18.28125 17.332031 18.363281 17.433594 18.410156 C 17.53125 18.457031 17.644531 18.460938 17.746094 18.425781 L 18.566406 18.128906 C 18.78125 18.050781 18.890625 17.8125 18.8125 17.597656 L 15.703125 9.027344 C 15.664062 8.925781 15.589844 8.84375 15.488281 8.796875 C 15.433594 8.769531 15.375 8.757812 15.316406 8.757812 C 15.269531 8.757812 15.222656 8.765625 15.175781 8.78125 L 14.355469 9.082031 C 14.140625 9.15625 14.03125 9.394531 14.109375 9.609375 Z M 9.289062 18.648438 L 8.285156 19.015625 C 8.050781 19.097656 7.8125 19.144531 7.570312 19.148438 L 9.097656 23.355469 C 9.175781 23.578125 9.34375 23.757812 9.558594 23.859375 C 9.777344 23.960938 10.019531 23.972656 10.242188 23.890625 C 10.703125 23.722656 10.945312 23.207031 10.777344 22.742188 Z M 10.175781 17.808594 L 8.121094 18.558594 C 7.683594 18.714844 7.214844 18.695312 6.792969 18.496094 C 6.367188 18.300781 6.050781 17.953125 5.890625 17.519531 C 5.566406 16.617188 6.03125 15.617188 6.933594 15.289062 L 8.988281 14.539062 Z M 16.484375 17.574219 L 10.65625 17.707031 L 9.421875 14.304688 L 13.933594 10.550781 Z M 21.863281 9.085938 L 22.132812 9.355469 L 22.199219 9.015625 Z M 19.722656 11.371094 C 19.789062 11.371094 19.855469 11.34375 19.90625 11.296875 C 19.953125 11.246094 19.980469 11.179688 19.980469 11.109375 C 19.980469 10.96875 19.863281 10.851562 19.722656 10.851562 C 19.652344 10.851562 19.585938 10.875 19.539062 10.925781 C 19.488281 10.976562 19.460938 11.039062 19.460938 11.109375 C 19.460938 11.253906 19.578125 11.371094 19.722656 11.371094 C 19.71875 11.371094 19.722656 11.371094 19.722656 11.371094 Z M 18.859375 12.546875 L 18.609375 11.863281 C 18.414062 11.328125 17.722656 11.078125 17.035156 11.277344 L 16.816406 10.671875 L 16.820312 6.71875 C 16.820312 6.46875 17.023438 6.269531 17.269531 6.269531 L 23.875 6.277344 C 24.121094 6.277344 24.320312 6.476562 24.320312 6.726562 L 24.316406 12.105469 C 24.316406 12.222656 24.269531 12.335938 24.183594 12.421875 C 24.097656 12.507812 23.988281 12.550781 23.867188 12.550781 L 22.605469 12.550781 C 22.550781 12.550781 22.5 12.566406 22.457031 12.601562 L 21.015625 13.683594 L 21.019531 12.792969 C 21.019531 12.726562 20.992188 12.664062 20.945312 12.621094 C 20.902344 12.574219 20.839844 12.550781 20.777344 12.550781 Z M 22.109375 10.019531 L 21.785156 9.695312 C 21.214844 9.996094 20.632812 9.976562 20.070312 9.960938 C 19.328125 9.9375 18.625 9.914062 17.851562 10.527344 C 17.808594 10.566406 17.753906 10.582031 17.703125 10.582031 C 17.628906 10.582031 17.558594 10.550781 17.511719 10.488281 C 17.429688 10.386719 17.445312 10.230469 17.550781 10.148438 C 18.464844 9.425781 19.324219 9.449219 20.082031 9.472656 C 20.574219 9.488281 21.007812 9.503906 21.421875 9.332031 L 21.199219 9.105469 C 21.136719 9.042969 21.113281 8.949219 21.140625 8.867188 C 21.164062 8.78125 21.238281 8.714844 21.324219 8.699219 L 22.464844 8.46875 C 22.542969 8.453125 22.625 8.476562 22.683594 8.535156 C 22.738281 8.59375 22.765625 8.675781 22.75 8.753906 L 22.519531 9.894531 C 22.5 9.984375 22.433594 10.054688 22.351562 10.078125 C 22.328125 10.085938 22.304688 10.089844 22.28125 10.089844 C 22.214844 10.089844 22.152344 10.066406 22.109375 10.019531 Z M 23.625 7.058594 C 23.539062 6.953125 23.386719 6.9375 23.28125 7.019531 L 22.476562 7.671875 L 22.15625 7.308594 C 22.070312 7.207031 21.914062 7.195312 21.8125 7.285156 C 21.714844 7.375 21.703125 7.527344 21.792969 7.628906 L 22.265625 8.167969 C 22.316406 8.222656 22.382812 8.25 22.449219 8.25 C 22.503906 8.25 22.558594 8.230469 22.601562 8.195312 L 23.589844 7.398438 C 23.691406 7.316406 23.707031 7.160156 23.625 7.058594 Z M 19.308594 8.734375 L 19.539062 8.644531 L 19.628906 8.875 C 19.667969 8.972656 19.757812 9.03125 19.855469 9.03125 C 19.886719 9.03125 19.914062 9.027344 19.945312 9.015625 C 20.070312 8.964844 20.132812 8.824219 20.082031 8.699219 L 19.992188 8.46875 L 20.226562 8.378906 C 20.351562 8.328125 20.410156 8.1875 20.363281 8.0625 C 20.316406 7.9375 20.175781 7.875 20.046875 7.925781 L 19.816406 8.015625 L 19.726562 7.78125 C 19.679688 7.65625 19.539062 7.597656 19.414062 7.644531 C 19.289062 7.691406 19.226562 7.832031 19.273438 7.957031 L 19.363281 8.191406 L 19.132812 8.28125 C 19.007812 8.328125 18.945312 8.46875 18.996094 8.59375 C 19.03125 8.691406 19.125 8.75 19.222656 8.75 C 19.25 8.75 19.28125 8.746094 19.308594 8.734375 Z M 20.46875 11.113281 C 20.464844 11.3125 20.390625 11.5 20.246094 11.640625 C 20.105469 11.78125 19.917969 11.859375 19.722656 11.859375 C 19.722656 11.859375 19.71875 11.859375 19.71875 11.859375 C 19.308594 11.855469 18.976562 11.523438 18.976562 11.109375 C 18.976562 10.910156 19.054688 10.722656 19.195312 10.582031 C 19.335938 10.441406 19.523438 10.363281 19.722656 10.363281 C 20.132812 10.363281 20.46875 10.699219 20.46875 11.113281 Z M 17.203125 11.738281 C 17.628906 11.621094 18.050781 11.746094 18.152344 12.03125 L 18.773438 13.730469 C 18.824219 13.867188 18.785156 14.003906 18.746094 14.089844 C 18.65625 14.285156 18.464844 14.457031 18.226562 14.5625 Z M 17.203125 11.738281 " fill-opacity="1" fill-rule="evenodd"/></g></svg>