<svg xmlns="http://www.w3.org/2000/svg" xmlns:xlink="http://www.w3.org/1999/xlink" width="40" zoomAndPan="magnify" viewBox="0 0 30 30.750001" height="41" preserveAspectRatio="xMidYMid meet" version="1.0"><defs><clipPath id="1c95cbc10a"><path d="M 0.210938 0 L 29.878906 0 L 29.878906 30.503906 L 0.210938 30.503906 Z M 0.210938 0 " clip-rule="nonzero"/></clipPath><clipPath id="6c4d88f4f9"><path d="M 7.644531 5.277344 L 22 5.277344 L 22 25.367188 L 7.644531 25.367188 Z M 7.644531 5.277344 " clip-rule="nonzero"/></clipPath><clipPath id="470975e75a"><path d="M 7.644531 17 L 18 17 L 18 25.367188 L 7.644531 25.367188 Z M 7.644531 17 " clip-rule="nonzero"/></clipPath><clipPath id="c0ac1b167f"><path d="M 22 11 L 25.5 11 L 25.5 18 L 22 18 Z M 22 11 " clip-rule="nonzero"/></clipPath><clipPath id="b594881495"><path d="M 7.644531 20 L 10 20 L 10 25 L 7.644531 25 Z M 7.644531 20 " clip-rule="nonzero"/></clipPath><clipPath id="80f0f2c65a"><path d="M 10 5.277344 L 18 5.277344 L 18 8 L 10 8 Z M 10 5.277344 " clip-rule="nonzero"/></clipPath><clipPath id="205c74b5d9"><path d="M 7.644531 5.277344 L 25.5 5.277344 L 25.5 25.367188 L 7.644531 25.367188 Z M 7.644531 5.277344 " clip-rule="nonzero"/></clipPath></defs><g clip-path="url(#1c95cbc10a)"><path fill="#ff83af" d="M 15.089844 0.542969 C 16.066406 0.542969 17.035156 0.640625 17.992188 0.828125 C 18.949219 1.019531 19.882812 1.296875 20.785156 1.671875 C 21.6875 2.042969 22.542969 2.496094 23.355469 3.035156 C 24.167969 3.574219 24.921875 4.1875 25.609375 4.875 C 26.300781 5.5625 26.917969 6.308594 27.460938 7.117188 C 28.003906 7.921875 28.460938 8.773438 28.835938 9.671875 C 29.210938 10.570312 29.492188 11.492188 29.683594 12.445312 C 29.875 13.398438 29.96875 14.359375 29.96875 15.332031 C 29.96875 16.300781 29.875 17.261719 29.683594 18.214844 C 29.492188 19.167969 29.210938 20.09375 28.835938 20.988281 C 28.460938 21.886719 28.003906 22.738281 27.460938 23.546875 C 26.917969 24.351562 26.300781 25.097656 25.609375 25.785156 C 24.921875 26.472656 24.167969 27.085938 23.355469 27.625 C 22.542969 28.164062 21.6875 28.621094 20.785156 28.992188 C 19.882812 29.363281 18.949219 29.644531 17.992188 29.832031 C 17.035156 30.023438 16.066406 30.117188 15.089844 30.117188 C 14.113281 30.117188 13.144531 30.023438 12.1875 29.832031 C 11.230469 29.644531 10.296875 29.363281 9.394531 28.992188 C 8.492188 28.621094 7.636719 28.164062 6.824219 27.625 C 6.011719 27.085938 5.261719 26.472656 4.570312 25.785156 C 3.878906 25.097656 3.261719 24.351562 2.71875 23.546875 C 2.175781 22.738281 1.71875 21.886719 1.34375 20.988281 C 0.96875 20.09375 0.6875 19.167969 0.496094 18.214844 C 0.304688 17.261719 0.210938 16.300781 0.210938 15.332031 C 0.210938 14.359375 0.304688 13.398438 0.496094 12.445312 C 0.6875 11.492188 0.96875 10.570312 1.34375 9.671875 C 1.71875 8.773438 2.175781 7.921875 2.71875 7.117188 C 3.261719 6.308594 3.878906 5.5625 4.570312 4.875 C 5.261719 4.1875 6.011719 3.574219 6.824219 3.035156 C 7.636719 2.496094 8.492188 2.042969 9.394531 1.671875 C 10.296875 1.296875 11.230469 1.019531 12.1875 0.828125 C 13.144531 0.640625 14.113281 0.542969 15.089844 0.542969 Z M 15.089844 0.542969 " fill-opacity="1" fill-rule="nonzero"/></g><path fill="#fffdfa" d="M 22.53125 15.332031 C 22.53125 13.292969 20.875 11.632812 18.84375 11.632812 C 17.855469 11.632812 16.929688 12.019531 16.234375 12.714844 L 12.484375 16.476562 C 12.175781 16.785156 11.769531 16.953125 11.339844 16.953125 C 10.445312 16.953125 9.71875 16.226562 9.71875 15.332031 C 9.71875 14.4375 10.445312 13.707031 11.339844 13.707031 C 11.769531 13.707031 12.175781 13.875 12.484375 14.183594 L 13.011719 14.710938 L 14.472656 13.246094 L 13.945312 12.714844 C 13.25 12.019531 12.324219 11.632812 11.339844 11.632812 C 9.304688 11.632812 7.652344 13.292969 7.652344 15.332031 C 7.652344 17.367188 9.304688 19.027344 11.339844 19.027344 C 12.324219 19.027344 13.25 18.640625 13.945312 17.945312 L 17.699219 14.183594 C 18.003906 13.875 18.410156 13.707031 18.84375 13.707031 C 19.734375 13.707031 20.460938 14.4375 20.460938 15.332031 C 20.460938 16.226562 19.734375 16.953125 18.84375 16.953125 C 18.410156 16.953125 18.003906 16.785156 17.699219 16.476562 L 17.167969 15.949219 L 15.707031 17.414062 L 16.234375 17.945312 C 16.929688 18.640625 17.855469 19.027344 18.84375 19.027344 C 20.875 19.027344 22.53125 17.367188 22.53125 15.332031 Z M 22.53125 15.332031 " fill-opacity="1" fill-rule="nonzero"/><g clip-path="url(#6c4d88f4f9)"><path fill="#ff83af" d="M 20.769531 13.105469 L 20.769531 11.007812 C 20.769531 10.367188 21.304688 9.683594 21.808594 9.683594 C 21.304688 9.683594 20.769531 9 20.769531 8.355469 L 20.769531 6.355469 C 20.769531 5.875 20.382812 5.484375 19.898438 5.484375 L 8.738281 5.484375 C 8.257812 5.484375 7.867188 5.875 7.867188 6.355469 L 7.867188 24.136719 C 7.867188 24.617188 8.257812 25.007812 8.738281 25.007812 L 19.898438 25.007812 C 20.382812 25.007812 20.769531 24.617188 20.769531 24.136719 L 20.769531 20.59375 L 21.5625 18.636719 C 21.738281 18.582031 21.867188 18.417969 21.867188 18.222656 L 21.867188 17.09375 C 21.867188 16.855469 21.671875 16.660156 21.429688 16.660156 L 21.226562 16.660156 L 21.226562 15.65625 Z M 20.769531 13.105469 " fill-opacity="1" fill-rule="nonzero"/></g><path fill="#ff83af" d="M 21.226562 16.660156 L 21.226562 15.667969 L 21.230469 15.65625 L 20.851562 14.898438 L 19.609375 15.457031 L 20.015625 16.660156 L 20.671875 16.964844 Z M 21.226562 16.660156 " fill-opacity="1" fill-rule="nonzero"/><g clip-path="url(#470975e75a)"><path fill="#e6f3ff" d="M 15.433594 17.941406 C 15.320312 18.269531 14.953125 18.460938 14.609375 18.328125 L 12.230469 17.414062 L 9.542969 18.042969 L 7.867188 20.46875 L 9.984375 22.035156 L 10.050781 22.082031 L 9.203125 25.007812 L 15.320312 25.007812 L 15.734375 23.039062 L 15.867188 22.417969 L 16.890625 22.449219 L 16.960938 22.226562 L 17.75 19.648438 L 17.917969 19.101562 Z M 15.433594 17.941406 " fill-opacity="1" fill-rule="nonzero"/></g><path fill="#ff83af" d="M 17.15625 11.167969 L 17.15625 15.085938 C 17.15625 15.59375 16.929688 16.078125 16.535156 16.402344 L 16.34375 16.554688 C 16.09375 16.761719 15.785156 16.890625 15.46875 16.929688 L 15.46875 17.738281 C 15.46875 18.179688 15.023438 18.484375 14.609375 18.328125 L 12.230469 17.414062 L 12.230469 14.722656 L 11.992188 14.722656 C 11.515625 14.722656 11.097656 14.363281 11.066406 13.886719 C 11.058594 13.722656 11.09375 13.5625 11.164062 13.425781 C 11.308594 13.132812 11.613281 12.933594 11.960938 12.933594 C 12.207031 12.933594 12.433594 13.035156 12.59375 13.195312 L 12.59375 11.941406 C 12.59375 11.941406 13.214844 11.757812 13.519531 11.195312 C 13.519531 11.195312 14.195312 11.871094 15.898438 11.871094 C 16.464844 11.871094 16.871094 11.570312 17.15625 11.167969 Z M 17.15625 11.167969 " fill-opacity="1" fill-rule="nonzero"/><path fill="#e6f3ff" d="M 17.835938 9.167969 C 17.835938 9.167969 17.730469 10.367188 17.15625 11.167969 C 16.871094 11.570312 16.464844 11.871094 15.898438 11.871094 C 14.195312 11.871094 13.519531 11.195312 13.519531 11.195312 C 13.214844 11.757812 12.59375 11.941406 12.59375 11.941406 L 12.59375 13.195312 C 12.433594 13.035156 12.207031 12.933594 11.960938 12.933594 C 11.613281 12.933594 11.308594 13.132812 11.164062 13.425781 L 11.164062 11.078125 C 11.164062 10.847656 11.257812 10.636719 11.410156 10.484375 C 11.5625 10.332031 11.769531 10.238281 12.003906 10.238281 C 12.003906 9.460938 12.632812 8.828125 13.414062 8.828125 L 15.746094 8.828125 L 16.003906 8.570312 C 16.160156 8.414062 16.375 8.328125 16.597656 8.328125 L 16.996094 8.328125 C 17.226562 8.328125 17.4375 8.421875 17.589844 8.570312 C 17.738281 8.722656 17.835938 8.933594 17.835938 9.167969 Z M 17.835938 9.167969 " fill-opacity="1" fill-rule="nonzero"/><path fill="#ff83af" d="M 23.863281 11.5625 L 20.835938 13.105469 L 19.496094 13.105469 C 19.277344 13.105469 19.097656 13.628906 19.097656 14.28125 C 19.097656 14.929688 19.273438 15.457031 19.496094 15.457031 L 20.835938 15.457031 L 23.863281 16.996094 Z M 23.863281 11.5625 " fill-opacity="1" fill-rule="nonzero"/><g clip-path="url(#c0ac1b167f)"><path fill="#ff83af" d="M 25.46875 14.28125 C 25.46875 14.652344 25.4375 15.011719 25.371094 15.355469 C 25.308594 15.699219 25.214844 16.003906 25.09375 16.265625 C 24.972656 16.527344 24.835938 16.730469 24.679688 16.875 C 24.519531 17.015625 24.359375 17.085938 24.1875 17.085938 C 24.015625 17.085938 23.851562 17.015625 23.695312 16.875 C 23.539062 16.730469 23.398438 16.527344 23.28125 16.265625 C 23.160156 16.003906 23.066406 15.699219 23 15.355469 C 22.9375 15.011719 22.902344 14.652344 22.902344 14.28125 C 22.902344 13.90625 22.9375 13.550781 23 13.207031 C 23.066406 12.863281 23.160156 12.558594 23.28125 12.292969 C 23.398438 12.03125 23.539062 11.828125 23.695312 11.6875 C 23.851562 11.542969 24.015625 11.472656 24.1875 11.472656 C 24.359375 11.472656 24.519531 11.542969 24.679688 11.6875 C 24.835938 11.828125 24.972656 12.03125 25.09375 12.292969 C 25.214844 12.558594 25.308594 12.863281 25.371094 13.207031 C 25.4375 13.550781 25.46875 13.90625 25.46875 14.28125 Z M 25.46875 14.28125 " fill-opacity="1" fill-rule="nonzero"/></g><path fill="#ff83af" d="M 19.496094 15.457031 C 19.277344 15.457031 19.097656 14.929688 19.097656 14.28125 C 19.097656 13.628906 19.277344 13.101562 19.496094 13.101562 L 20.667969 13.101562 C 20.445312 13.101562 20.265625 13.628906 20.265625 14.28125 C 20.265625 14.929688 20.445312 15.457031 20.667969 15.457031 Z M 19.496094 15.457031 " fill-opacity="1" fill-rule="nonzero"/><path fill="#e6f3ff" d="M 24.03125 13.078125 L 24.03125 13.074219 L 23.148438 12.632812 C 22.996094 13.09375 22.902344 13.664062 22.902344 14.28125 C 22.902344 14.894531 22.996094 15.464844 23.148438 15.925781 L 24.03125 15.484375 C 24.230469 15.402344 24.386719 14.894531 24.386719 14.28125 C 24.386719 13.664062 24.230469 13.15625 24.03125 13.078125 Z M 24.03125 13.078125 " fill-opacity="1" fill-rule="nonzero"/><path fill="#ff83af" d="M 21.867188 17.09375 L 21.867188 18.222656 C 21.867188 18.417969 21.738281 18.582031 21.5625 18.636719 C 21.519531 18.652344 21.476562 18.660156 21.429688 18.660156 L 20.109375 18.660156 C 20.046875 18.660156 19.988281 18.644531 19.933594 18.621094 C 19.800781 18.5625 19.699219 18.4375 19.675781 18.28125 L 19.523438 17.15625 C 19.488281 16.894531 19.691406 16.660156 19.953125 16.660156 L 21.429688 16.660156 C 21.671875 16.660156 21.867188 16.855469 21.867188 17.09375 Z M 21.867188 17.09375 " fill-opacity="1" fill-rule="nonzero"/><path fill="#ff83af" d="M 21.5625 18.636719 L 20.324219 21.703125 C 20.066406 22.335938 19.394531 22.703125 18.722656 22.570312 L 16.960938 22.226562 L 17.75 19.648438 L 19.183594 20.0625 L 19.933594 18.621094 Z M 21.5625 18.636719 " fill-opacity="1" fill-rule="nonzero"/><g clip-path="url(#b594881495)"><path fill="#ff83af" d="M 7.867188 24.140625 C 7.871094 24.324219 7.925781 24.492188 8.023438 24.632812 L 9.984375 22.035156 L 7.867188 20.46875 Z M 7.867188 24.140625 " fill-opacity="1" fill-rule="nonzero"/></g><g clip-path="url(#80f0f2c65a)"><path fill="#e6f3ff" d="M 16.835938 7.132812 L 11.730469 7.132812 L 10.867188 5.484375 L 17.703125 5.484375 Z M 16.835938 7.132812 " fill-opacity="1" fill-rule="nonzero"/></g><path fill="#ff83af" d="M 9.902344 9.886719 C 9.902344 9.246094 9.371094 8.5625 8.867188 8.5625 C 9.371094 8.5625 9.902344 7.878906 9.902344 7.234375 C 9.902344 7.878906 10.4375 8.5625 10.941406 8.5625 C 10.4375 8.5625 9.902344 9.246094 9.902344 9.886719 Z M 9.902344 9.886719 " fill-opacity="1" fill-rule="nonzero"/><path fill="#ff83af" d="M 20.769531 11.007812 C 20.769531 10.367188 20.238281 9.683594 19.734375 9.683594 C 20.238281 9.683594 20.769531 9 20.769531 8.355469 C 20.769531 9 21.304688 9.683594 21.808594 9.683594 C 21.304688 9.683594 20.769531 10.367188 20.769531 11.007812 Z M 20.769531 11.007812 " fill-opacity="1" fill-rule="nonzero"/><path fill="#ff83af" d="M 10.433594 18.535156 C 10.433594 17.890625 9.898438 17.207031 9.398438 17.207031 C 9.898438 17.207031 10.433594 16.523438 10.433594 15.882812 C 10.433594 16.523438 10.96875 17.207031 11.46875 17.207031 C 10.96875 17.207031 10.433594 17.890625 10.433594 18.535156 Z M 10.433594 18.535156 " fill-opacity="1" fill-rule="nonzero"/><g clip-path="url(#205c74b5d9)"><path fill="#fffdfa" d="M 24.191406 11.265625 C 24.054688 11.265625 23.921875 11.304688 23.796875 11.371094 C 23.769531 11.375 21.007812 12.789062 20.980469 12.800781 C 21 12.699219 20.957031 10.828125 21.003906 10.800781 C 21.097656 10.324219 21.5 9.886719 21.8125 9.890625 C 21.925781 9.890625 22.019531 9.796875 22.019531 9.683594 C 22.019531 9.570312 21.925781 9.476562 21.8125 9.476562 C 21.445312 9.488281 20.96875 8.863281 20.980469 8.359375 C 20.980469 8.359375 20.980469 6.359375 20.980469 6.359375 C 20.980469 5.761719 20.5 5.28125 19.90625 5.28125 C 17.160156 5.277344 11.488281 5.28125 8.742188 5.28125 C 8.148438 5.28125 7.667969 5.761719 7.667969 6.359375 C 7.664062 6.359375 7.667969 24.140625 7.667969 24.140625 C 7.667969 24.359375 7.734375 24.578125 7.863281 24.757812 C 8.058594 25.035156 8.378906 25.214844 8.742188 25.214844 L 15.324219 25.214844 C 15.417969 25.214844 15.507812 25.144531 15.523438 25.050781 C 15.523438 25.050781 15.527344 25.050781 15.527344 25.050781 L 16.035156 22.628906 L 16.886719 22.65625 C 17.003906 22.664062 17.085938 22.574219 17.105469 22.46875 C 17.339844 22.503906 18.796875 22.824219 19 22.804688 C 19.703125 22.808594 20.34375 22.339844 20.570312 21.65625 L 20.570312 24.136719 C 20.570312 24.503906 20.269531 24.800781 19.90625 24.800781 L 16.328125 24.800781 C 16.214844 24.800781 16.121094 24.894531 16.121094 25.007812 C 16.121094 25.125 16.214844 25.214844 16.328125 25.214844 L 19.90625 25.214844 C 20.5 25.214844 20.980469 24.730469 20.980469 24.136719 L 20.980469 20.632812 L 21.726562 18.796875 C 21.9375 18.691406 22.074219 18.472656 22.074219 18.226562 L 22.074219 17.097656 C 22.074219 16.742188 21.789062 16.457031 21.4375 16.453125 L 21.4375 15.6875 C 21.449219 15.601562 21.402344 15.515625 21.328125 15.472656 C 21.328125 15.472656 20.933594 15.273438 20.933594 15.273438 C 20.875 15.238281 20.753906 15.253906 20.691406 15.25 C 20.410156 14.949219 20.414062 13.613281 20.6875 13.3125 C 20.761719 13.308594 20.859375 13.324219 20.925781 13.292969 C 20.933594 13.289062 23.101562 12.183594 23.109375 12.183594 C 22.558594 13.425781 22.558594 15.132812 23.109375 16.378906 L 22.132812 15.882812 C 22.03125 15.832031 21.90625 15.871094 21.855469 15.976562 C 21.804688 16.078125 21.84375 16.199219 21.945312 16.253906 C 21.992188 16.273438 23.738281 17.171875 23.792969 17.191406 C 24.925781 17.707031 25.671875 16.082031 25.679688 14.28125 C 25.679688 12.589844 25.027344 11.265625 24.191406 11.265625 Z M 21.023438 15.785156 L 21.023438 16.453125 L 20.167969 16.453125 L 19.902344 15.664062 L 20.789062 15.664062 Z M 20.773438 9.132812 C 20.890625 9.347656 21.050781 9.539062 21.246094 9.683594 C 21.050781 9.828125 20.890625 10.023438 20.773438 10.234375 C 20.65625 10.011719 20.492188 9.820312 20.304688 9.683594 C 20.492188 9.546875 20.65625 9.355469 20.773438 9.132812 Z M 8.742188 5.695312 L 17.363281 5.695312 L 16.714844 6.925781 L 11.859375 6.925781 L 11.476562 6.195312 C 11.421875 6.09375 11.296875 6.054688 11.195312 6.105469 C 11.09375 6.160156 11.054688 6.285156 11.109375 6.386719 L 11.554688 7.230469 C 11.589844 7.296875 11.660156 7.339844 11.734375 7.339844 L 16.839844 7.339844 C 16.917969 7.339844 16.988281 7.296875 17.023438 7.230469 L 17.832031 5.695312 L 19.90625 5.695312 C 20.269531 5.695312 20.570312 5.992188 20.570312 6.359375 L 20.570312 8.359375 C 20.570312 8.921875 20.09375 9.476562 19.738281 9.476562 C 19.464844 9.484375 19.464844 9.882812 19.738281 9.890625 C 20.09375 9.890625 20.570312 10.445312 20.570312 11.007812 L 20.570312 12.898438 L 19.5 12.898438 C 19.265625 12.898438 19.101562 13.117188 19.003906 13.433594 C 18.800781 14.039062 18.84375 15.585938 19.464844 15.660156 L 19.746094 16.492188 C 19.464844 16.585938 19.277344 16.890625 19.324219 17.183594 C 19.324219 17.183594 19.476562 18.3125 19.476562 18.3125 C 19.496094 18.457031 19.566406 18.589844 19.671875 18.6875 L 19.082031 19.816406 L 18.011719 19.507812 L 18.117188 19.164062 C 18.148438 19.0625 18.101562 18.957031 18.007812 18.914062 L 15.671875 17.824219 C 15.683594 17.792969 15.675781 17.15625 15.675781 17.105469 C 16.054688 17.03125 16.386719 16.8125 16.667969 16.5625 C 17.113281 16.199219 17.367188 15.660156 17.367188 15.085938 L 17.367188 11.234375 C 17.941406 10.378906 18.039062 9.246094 18.046875 9.167969 C 18.058594 8.605469 17.558594 8.109375 17 8.121094 C 17 8.121094 16.601562 8.121094 16.601562 8.121094 C 16.324219 8.121094 16.054688 8.230469 15.859375 8.425781 L 15.664062 8.621094 L 13.417969 8.621094 C 12.589844 8.621094 11.90625 9.25 11.8125 10.050781 C 11.328125 10.136719 10.949219 10.589844 10.960938 11.082031 C 10.960938 11.082031 10.960938 13.382812 10.960938 13.382812 C 10.617188 14.113281 11.214844 14.964844 12.027344 14.933594 L 12.027344 17.25 L 11.628906 17.34375 C 11.746094 17.21875 11.644531 16.996094 11.472656 17.003906 C 11.117188 17.003906 10.644531 16.449219 10.644531 15.882812 C 10.644531 15.769531 10.550781 15.675781 10.4375 15.675781 C 10.324219 15.675781 10.230469 15.769531 10.230469 15.882812 C 10.230469 16.449219 9.753906 17.003906 9.402344 17.003906 C 9.128906 17.007812 9.128906 17.410156 9.402344 17.414062 C 9.570312 17.414062 9.769531 17.542969 9.929688 17.742188 L 9.5 17.839844 C 9.449219 17.851562 9.40625 17.882812 9.378906 17.925781 L 8.078125 19.804688 L 8.078125 6.359375 C 8.078125 5.992188 8.378906 5.695312 8.742188 5.695312 Z M 15.207031 17.949219 C 15.105469 18.128906 14.878906 18.210938 14.6875 18.132812 C 14.6875 18.132812 12.441406 17.273438 12.441406 17.273438 L 12.441406 14.933594 C 12.714844 14.925781 12.71875 14.527344 12.441406 14.519531 C 12.332031 14.519531 12.105469 14.519531 11.996094 14.519531 C 11.050781 14.488281 11.039062 13.1875 11.964844 13.140625 C 12.148438 13.140625 12.324219 13.214844 12.453125 13.34375 C 12.511719 13.402344 12.601562 13.421875 12.675781 13.386719 C 12.753906 13.355469 12.804688 13.28125 12.804688 13.195312 L 12.804688 12.085938 C 12.992188 12.003906 13.324219 11.824219 13.574219 11.496094 C 13.894531 11.714844 14.628906 12.082031 15.902344 12.082031 C 16.285156 12.082031 16.660156 11.949219 16.953125 11.699219 L 16.953125 15.085938 C 16.953125 15.535156 16.753906 15.957031 16.40625 16.242188 L 16.21875 16.398438 C 15.820312 16.726562 15.253906 16.824219 14.769531 16.648438 C 14.609375 16.589844 14.460938 16.507812 14.328125 16.398438 L 13.515625 15.730469 C 13.425781 15.660156 13.296875 15.671875 13.222656 15.761719 C 13.152344 15.851562 13.164062 15.980469 13.253906 16.050781 L 14.066406 16.71875 C 14.398438 16.992188 14.832031 17.148438 15.265625 17.148438 L 15.265625 17.738281 C 15.265625 17.816406 15.246094 17.886719 15.207031 17.949219 Z M 11.371094 12.898438 L 11.371094 11.082031 C 11.371094 10.910156 11.4375 10.753906 11.558594 10.632812 C 11.679688 10.511719 11.835938 10.449219 12.007812 10.449219 C 12.121094 10.449219 12.214844 10.355469 12.214844 10.242188 C 12.214844 9.578125 12.753906 9.035156 13.417969 9.035156 L 15.75 9.035156 C 15.804688 9.035156 15.859375 9.015625 15.898438 8.976562 L 16.152344 8.71875 C 16.269531 8.601562 16.433594 8.535156 16.601562 8.535156 L 17 8.535156 C 17.335938 8.527344 17.632812 8.820312 17.632812 9.15625 C 17.597656 9.644531 17.199219 11.710938 15.902344 11.667969 C 14.320312 11.667969 13.675781 11.054688 13.667969 11.050781 C 13.578125 10.953125 13.402344 10.980469 13.339844 11.097656 C 13.082031 11.574219 12.542969 11.742188 12.539062 11.746094 C 12.453125 11.769531 12.390625 11.851562 12.390625 11.941406 L 12.390625 12.8125 C 12.066406 12.675781 11.671875 12.707031 11.371094 12.898438 Z M 9.96875 17.207031 C 10.152344 17.074219 10.316406 16.878906 10.4375 16.660156 C 10.558594 16.878906 10.722656 17.074219 10.90625 17.207031 C 10.722656 17.34375 10.558594 17.539062 10.4375 17.757812 C 10.316406 17.539062 10.152344 17.34375 9.96875 17.207031 Z M 9.695312 22.078125 L 8.085938 24.214844 C 8.082031 24.191406 8.078125 24.164062 8.078125 24.140625 L 8.078125 20.878906 C 8.296875 21.039062 9.457031 21.898438 9.695312 22.078125 Z M 8.292969 24.625 L 9.605469 22.886719 L 9.050781 24.800781 L 8.742188 24.800781 C 8.570312 24.800781 8.414062 24.734375 8.292969 24.625 Z M 16.121094 22.21875 L 16.371094 21.035156 C 16.417969 20.765625 16.027344 20.683594 15.964844 20.949219 C 15.964844 20.949219 15.667969 22.375 15.667969 22.375 L 15.15625 24.800781 L 9.480469 24.800781 L 10.171875 22.421875 C 10.257812 22.453125 10.355469 22.429688 10.414062 22.355469 L 11.832031 20.492188 C 11.898438 20.402344 11.882812 20.269531 11.792969 20.203125 C 11.699219 20.132812 11.570312 20.148438 11.503906 20.242188 L 10.207031 21.941406 C 10.0625 21.835938 8.238281 20.484375 8.15625 20.421875 L 9.671875 18.226562 L 10.144531 18.117188 C 10.203125 18.257812 10.230469 18.398438 10.230469 18.535156 C 10.230469 18.648438 10.324219 18.742188 10.4375 18.742188 C 10.550781 18.742188 10.644531 18.648438 10.644531 18.535156 C 10.644531 18.492188 10.648438 18.449219 10.652344 18.410156 C 10.671875 18.257812 10.71875 18.109375 10.796875 17.960938 L 12.21875 17.628906 L 14.039062 18.328125 C 14.136719 18.363281 14.574219 18.542969 14.667969 18.558594 C 14.988281 18.632812 15.34375 18.488281 15.527344 18.214844 L 17.667969 19.214844 C 17.476562 19.851562 16.945312 21.578125 16.742188 22.238281 Z M 20.585938 20.515625 C 20.585938 20.515625 20.136719 21.625 20.136719 21.625 C 19.917969 22.167969 19.339844 22.480469 18.765625 22.367188 L 17.226562 22.070312 L 17.890625 19.902344 L 18.886719 20.191406 L 18.796875 20.367188 C 18.679688 20.609375 19.035156 20.796875 19.164062 20.554688 C 19.167969 20.550781 19.371094 20.160156 19.371094 20.152344 L 20.046875 18.863281 C 20.070312 18.867188 20.089844 18.867188 20.113281 18.867188 L 21.25 18.867188 Z M 21.664062 17.097656 L 21.664062 18.226562 C 21.664062 18.347656 21.558594 18.453125 21.433594 18.453125 C 21.433594 18.453125 20.113281 18.453125 20.113281 18.453125 C 20.082031 18.453125 20.050781 18.445312 20.023438 18.433594 C 19.949219 18.402344 19.898438 18.332031 19.886719 18.253906 L 19.730469 17.125 C 19.710938 16.996094 19.824219 16.863281 19.957031 16.867188 C 19.957031 16.867188 20.019531 16.867188 20.019531 16.867188 L 21.230469 16.867188 C 21.230469 16.867188 21.433594 16.867188 21.433594 16.867188 C 21.558594 16.867188 21.664062 16.96875 21.664062 17.097656 Z M 20.21875 15.25 L 19.519531 15.25 C 19.273438 15.007812 19.210938 13.6875 19.519531 13.3125 L 20.21875 13.3125 C 20.011719 13.835938 20.011719 14.726562 20.21875 15.25 Z M 23.957031 15.292969 C 23.945312 15.296875 23.933594 15.300781 23.921875 15.308594 L 23.28125 15.632812 C 23.058594 14.753906 23.058594 13.808594 23.28125 12.929688 L 23.917969 13.25 C 23.929688 13.257812 23.941406 13.265625 23.953125 13.269531 C 24.023438 13.308594 24.183594 13.65625 24.183594 14.28125 C 24.183594 14.90625 24.023438 15.253906 23.957031 15.292969 Z M 24.191406 16.882812 C 23.777344 16.847656 23.558594 16.375 23.410156 16.03125 L 24.125 15.667969 C 24.132812 15.667969 24.136719 15.664062 24.140625 15.664062 C 24.753906 15.339844 24.753906 13.222656 24.136719 12.898438 C 24.132812 12.898438 24.128906 12.894531 24.125 12.890625 L 23.410156 12.53125 C 24.15625 10.671875 25.273438 12.175781 25.269531 14.28125 C 25.269531 15.8125 24.699219 16.882812 24.191406 16.882812 Z M 24.191406 16.882812 " fill-opacity="1" fill-rule="nonzero"/></g><path fill="#fffdfa" d="M 8.871094 8.769531 C 9.226562 8.769531 9.699219 9.324219 9.699219 9.890625 C 9.707031 10.160156 10.109375 10.164062 10.113281 9.890625 C 10.113281 9.324219 10.589844 8.769531 10.945312 8.769531 C 11.214844 8.761719 11.21875 8.363281 10.945312 8.355469 C 10.589844 8.355469 10.113281 7.804688 10.113281 7.238281 C 10.109375 6.964844 9.707031 6.964844 9.699219 7.238281 C 9.699219 7.804688 9.226562 8.355469 8.871094 8.355469 C 8.757812 8.355469 8.664062 8.449219 8.664062 8.5625 C 8.664062 8.675781 8.757812 8.769531 8.871094 8.769531 Z M 9.90625 8.011719 C 10.027344 8.234375 10.191406 8.425781 10.378906 8.5625 C 10.191406 8.699219 10.027344 8.890625 9.90625 9.113281 C 9.789062 8.890625 9.625 8.699219 9.4375 8.5625 C 9.625 8.425781 9.789062 8.234375 9.90625 8.011719 Z M 9.90625 8.011719 " fill-opacity="1" fill-rule="nonzero"/></svg>