<svg xmlns="http://www.w3.org/2000/svg" xmlns:xlink="http://www.w3.org/1999/xlink" width="500" zoomAndPan="magnify" viewBox="0 0 375 374.999991" height="500" preserveAspectRatio="xMidYMid meet" version="1.0"><defs><g/><clipPath id="fb5918d711"><rect x="0" width="352" y="0" height="354"/></clipPath></defs><g transform="matrix(1, 0, 0, 1, 12, 21)"><g clip-path="url(#fb5918d711)"><g fill="#8c52ff" fill-opacity="1"><g transform="translate(1.902553, 298.171977)"><g><path d="M 26.234375 -21.859375 L 26.234375 -163.359375 C 26.234375 -168.398438 24.640625 -172.707031 21.453125 -176.28125 C 18.273438 -179.863281 14.4375 -182.050781 9.9375 -182.84375 L 9.9375 -185.234375 L 77.90625 -195.171875 C 78.164062 -195.171875 78.363281 -195.171875 78.5 -195.171875 C 78.632812 -195.171875 78.832031 -195.171875 79.09375 -195.171875 C 83.601562 -195.171875 85.859375 -192.914062 85.859375 -188.40625 L 85.859375 -21.859375 C 85.859375 -17.085938 87.445312 -12.847656 90.625 -9.140625 C 93.800781 -5.429688 97.644531 -3.179688 102.15625 -2.390625 L 102.15625 0 L 9.9375 0 L 9.9375 -2.390625 C 14.4375 -3.179688 18.273438 -5.429688 21.453125 -9.140625 C 24.640625 -12.847656 26.234375 -17.085938 26.234375 -21.859375 Z M 87.046875 -247.234375 C 87.046875 -239.015625 84 -231.859375 77.90625 -225.765625 C 71.8125 -219.671875 64.523438 -216.625 56.046875 -216.625 C 47.566406 -216.625 40.34375 -219.671875 34.375 -225.765625 C 28.414062 -231.859375 25.4375 -239.015625 25.4375 -247.234375 C 25.4375 -255.710938 28.414062 -263 34.375 -269.09375 C 40.34375 -275.1875 47.566406 -278.234375 56.046875 -278.234375 C 64.523438 -278.234375 71.8125 -275.1875 77.90625 -269.09375 C 84 -263 87.046875 -255.710938 87.046875 -247.234375 Z M 87.046875 -247.234375 "/></g></g></g><g fill="#8c52ff" fill-opacity="1"><g transform="translate(91.323402, 298.171977)"><g><path d="M 190.390625 -21.859375 C 190.390625 -17.085938 191.976562 -12.847656 195.15625 -9.140625 C 198.34375 -5.429688 202.1875 -3.179688 206.6875 -2.390625 L 206.6875 0 L 114.46875 0 L 114.46875 -2.390625 C 118.976562 -3.179688 122.820312 -5.429688 126 -9.140625 C 129.175781 -12.847656 130.765625 -17.085938 130.765625 -21.859375 L 130.765625 -139.125 C 130.765625 -146.007812 132.488281 -151.4375 135.9375 -155.40625 C 139.382812 -159.382812 142.828125 -163.160156 146.265625 -166.734375 C 149.710938 -170.316406 151.4375 -174.492188 151.4375 -179.265625 C 151.4375 -183.765625 148.921875 -187.207031 143.890625 -189.59375 C 138.859375 -191.976562 132.363281 -193.171875 124.40625 -193.171875 C 115.664062 -193.171875 107.847656 -192.046875 100.953125 -189.796875 C 94.066406 -187.546875 89.035156 -185.625 85.859375 -184.03125 L 85.859375 -21.859375 C 85.859375 -17.085938 87.445312 -12.847656 90.625 -9.140625 C 93.800781 -5.429688 97.644531 -3.179688 102.15625 -2.390625 L 102.15625 0 L 9.9375 0 L 9.9375 -2.390625 C 14.4375 -3.179688 18.273438 -5.429688 21.453125 -9.140625 C 24.640625 -12.847656 26.234375 -17.085938 26.234375 -21.859375 L 26.234375 -163.359375 C 26.234375 -168.398438 24.640625 -172.707031 21.453125 -176.28125 C 18.273438 -179.863281 14.4375 -182.050781 9.9375 -182.84375 L 9.9375 -185.234375 L 77.90625 -195.171875 C 78.164062 -195.171875 78.363281 -195.171875 78.5 -195.171875 C 78.632812 -195.171875 78.832031 -195.171875 79.09375 -195.171875 C 83.601562 -195.171875 85.859375 -192.914062 85.859375 -188.40625 L 85.859375 -186.8125 C 93.273438 -190.519531 101.550781 -193.5 110.6875 -195.75 C 119.832031 -198.007812 129.039062 -199.140625 138.3125 -199.140625 C 147.59375 -199.140625 156.207031 -197.347656 164.15625 -193.765625 C 172.101562 -190.191406 178.460938 -184.492188 183.234375 -176.671875 C 188.003906 -168.859375 190.390625 -158.195312 190.390625 -144.6875 Z M 190.390625 -21.859375 "/></g></g></g><g fill="#8c52ff" fill-opacity="1"><g transform="translate(285.27162, 298.171977)"><g><path d="M 38.5625 1.984375 C 31.664062 1.984375 25.832031 -0.398438 21.0625 -5.171875 C 16.289062 -9.941406 13.90625 -15.769531 13.90625 -22.65625 C 13.90625 -29.539062 16.289062 -35.4375 21.0625 -40.34375 C 25.832031 -45.25 31.664062 -47.703125 38.5625 -47.703125 C 45.445312 -47.703125 51.335938 -45.25 56.234375 -40.34375 C 61.140625 -35.4375 63.59375 -29.539062 63.59375 -22.65625 C 63.59375 -15.769531 61.140625 -9.941406 56.234375 -5.171875 C 51.335938 -0.398438 45.445312 1.984375 38.5625 1.984375 Z M 38.5625 1.984375 "/></g></g></g></g></g></svg>