<svg xmlns="http://www.w3.org/2000/svg" xmlns:xlink="http://www.w3.org/1999/xlink" width="500" zoomAndPan="magnify" viewBox="0 0 375 89.999999" height="120" preserveAspectRatio="xMidYMid meet" version="1.0"><defs><g/><clipPath id="b1ab1f16d7"><rect x="0" width="370" y="0" height="89"/></clipPath></defs><g transform="matrix(1, 0, 0, 1, 2, 1)"><g clip-path="url(#b1ab1f16d7)"><g fill="#8c52ff" fill-opacity="1"><g transform="translate(1.276227, 80.464138)"><g><path d="M 7.015625 -5.84375 L 7.015625 -43.6875 C 7.015625 -45.03125 6.585938 -46.179688 5.734375 -47.140625 C 4.890625 -48.097656 3.863281 -48.679688 2.65625 -48.890625 L 2.65625 -49.53125 L 20.828125 -52.1875 C 20.898438 -52.1875 20.953125 -52.1875 20.984375 -52.1875 C 21.023438 -52.1875 21.082031 -52.1875 21.15625 -52.1875 C 22.351562 -52.1875 22.953125 -51.585938 22.953125 -50.390625 L 22.953125 -5.84375 C 22.953125 -4.570312 23.378906 -3.4375 24.234375 -2.4375 C 25.085938 -1.445312 26.113281 -0.847656 27.3125 -0.640625 L 27.3125 0 L 2.65625 0 L 2.65625 -0.640625 C 3.863281 -0.847656 4.890625 -1.445312 5.734375 -2.4375 C 6.585938 -3.4375 7.015625 -4.570312 7.015625 -5.84375 Z M 23.28125 -66.109375 C 23.28125 -63.921875 22.460938 -62.007812 20.828125 -60.375 C 19.203125 -58.75 17.253906 -57.9375 14.984375 -57.9375 C 12.722656 -57.9375 10.789062 -58.75 9.1875 -60.375 C 7.59375 -62.007812 6.796875 -63.921875 6.796875 -66.109375 C 6.796875 -68.378906 7.59375 -70.328125 9.1875 -71.953125 C 10.789062 -73.585938 12.722656 -74.40625 14.984375 -74.40625 C 17.253906 -74.40625 19.203125 -73.585938 20.828125 -71.953125 C 22.460938 -70.328125 23.28125 -68.378906 23.28125 -66.109375 Z M 23.28125 -66.109375 "/></g></g></g><g fill="#8c52ff" fill-opacity="1"><g transform="translate(25.188236, 80.464138)"><g><path d="M 50.921875 -5.84375 C 50.921875 -4.570312 51.34375 -3.4375 52.1875 -2.4375 C 53.039062 -1.445312 54.070312 -0.847656 55.28125 -0.640625 L 55.28125 0 L 30.609375 0 L 30.609375 -0.640625 C 31.816406 -0.847656 32.84375 -1.445312 33.6875 -2.4375 C 34.539062 -3.4375 34.96875 -4.570312 34.96875 -5.84375 L 34.96875 -37.203125 C 34.96875 -39.046875 35.425781 -40.5 36.34375 -41.5625 C 37.269531 -42.625 38.191406 -43.632812 39.109375 -44.59375 C 40.035156 -45.550781 40.5 -46.664062 40.5 -47.9375 C 40.5 -49.144531 39.820312 -50.066406 38.46875 -50.703125 C 37.125 -51.335938 35.390625 -51.65625 33.265625 -51.65625 C 30.929688 -51.65625 28.84375 -51.351562 27 -50.75 C 25.15625 -50.15625 23.804688 -49.644531 22.953125 -49.21875 L 22.953125 -5.84375 C 22.953125 -4.570312 23.378906 -3.4375 24.234375 -2.4375 C 25.085938 -1.445312 26.113281 -0.847656 27.3125 -0.640625 L 27.3125 0 L 2.65625 0 L 2.65625 -0.640625 C 3.863281 -0.847656 4.890625 -1.445312 5.734375 -2.4375 C 6.585938 -3.4375 7.015625 -4.570312 7.015625 -5.84375 L 7.015625 -43.6875 C 7.015625 -45.03125 6.585938 -46.179688 5.734375 -47.140625 C 4.890625 -48.097656 3.863281 -48.679688 2.65625 -48.890625 L 2.65625 -49.53125 L 20.828125 -52.1875 C 20.898438 -52.1875 20.953125 -52.1875 20.984375 -52.1875 C 21.023438 -52.1875 21.082031 -52.1875 21.15625 -52.1875 C 22.351562 -52.1875 22.953125 -51.585938 22.953125 -50.390625 L 22.953125 -49.953125 C 24.941406 -50.953125 27.15625 -51.75 29.59375 -52.34375 C 32.039062 -52.945312 34.503906 -53.25 36.984375 -53.25 C 39.472656 -53.25 41.78125 -52.769531 43.90625 -51.8125 C 46.03125 -50.863281 47.726562 -49.34375 49 -47.25 C 50.28125 -45.15625 50.921875 -42.300781 50.921875 -38.6875 Z M 50.921875 -5.84375 "/></g></g></g><g fill="#8c52ff" fill-opacity="1"><g transform="translate(77.051886, 80.464138)"><g><path d="M 25.71875 -74.40625 C 29.332031 -74.40625 32.695312 -73.625 35.8125 -72.0625 C 38.9375 -70.507812 41.453125 -68.582031 43.359375 -66.28125 C 45.273438 -63.976562 46.234375 -61.691406 46.234375 -59.421875 C 46.234375 -57.148438 45.414062 -55.195312 43.78125 -53.5625 C 42.15625 -51.9375 40.210938 -51.125 37.953125 -51.125 C 35.679688 -51.125 33.75 -51.9375 32.15625 -53.5625 C 30.5625 -55.195312 29.765625 -57.148438 29.765625 -59.421875 C 29.765625 -60.910156 30.15625 -62.1875 30.9375 -63.25 C 31.71875 -64.3125 32.476562 -65.320312 33.21875 -66.28125 C 33.957031 -67.238281 34.328125 -68.351562 34.328125 -69.625 C 34.328125 -70.832031 33.796875 -71.734375 32.734375 -72.328125 C 31.671875 -72.929688 30.445312 -73.320312 29.0625 -73.5 C 27.6875 -73.675781 26.570312 -73.765625 25.71875 -73.765625 C 24.875 -73.765625 23.757812 -73.675781 22.375 -73.5 C 20.988281 -73.320312 19.765625 -72.929688 18.703125 -72.328125 C 17.640625 -71.734375 17.109375 -70.832031 17.109375 -69.625 C 17.109375 -68.207031 17.566406 -67 18.484375 -66 C 19.410156 -65.007812 20.351562 -64.019531 21.3125 -63.03125 C 22.269531 -62.039062 22.816406 -60.835938 22.953125 -59.421875 L 22.953125 -37.515625 C 25.222656 -37.515625 27.171875 -38.328125 28.796875 -39.953125 C 30.429688 -41.585938 31.25 -43.503906 31.25 -45.703125 L 31.890625 -45.703125 L 31.890625 -28.59375 L 31.25 -28.59375 C 31.25 -30.863281 30.429688 -32.8125 28.796875 -34.4375 C 27.171875 -36.070312 25.222656 -36.890625 22.953125 -36.890625 L 22.953125 -5.84375 C 22.953125 -4.570312 23.378906 -3.4375 24.234375 -2.4375 C 25.085938 -1.445312 26.113281 -0.847656 27.3125 -0.640625 L 27.3125 0 L 2.65625 0 L 2.65625 -0.640625 C 3.863281 -0.847656 4.890625 -1.445312 5.734375 -2.4375 C 6.585938 -3.4375 7.015625 -4.570312 7.015625 -5.84375 L 7.015625 -59.421875 C 7.015625 -61.691406 7.878906 -63.976562 9.609375 -66.28125 C 11.347656 -68.582031 13.632812 -70.507812 16.46875 -72.0625 C 19.3125 -73.625 22.394531 -74.40625 25.71875 -74.40625 Z M 25.71875 -74.40625 "/></g></g></g><g fill="#8c52ff" fill-opacity="1"><g transform="translate(117.224735, 80.464138)"><g><path d="M 22.953125 -72.5 L 22.953125 -5.84375 C 22.953125 -4.570312 23.378906 -3.4375 24.234375 -2.4375 C 25.085938 -1.445312 26.113281 -0.847656 27.3125 -0.640625 L 27.3125 0 L 2.65625 0 L 2.65625 -0.640625 C 3.863281 -0.847656 4.890625 -1.445312 5.734375 -2.4375 C 6.585938 -3.4375 7.015625 -4.570312 7.015625 -5.84375 L 7.015625 -65.90625 C 7.015625 -67.175781 6.585938 -68.304688 5.734375 -69.296875 C 4.890625 -70.296875 3.863281 -70.898438 2.65625 -71.109375 L 2.65625 -71.75 L 20.828125 -74.40625 C 20.898438 -74.40625 20.953125 -74.40625 20.984375 -74.40625 C 21.023438 -74.40625 21.082031 -74.40625 21.15625 -74.40625 C 22.351562 -74.40625 22.953125 -73.769531 22.953125 -72.5 Z M 22.953125 -72.5 "/></g></g></g><g fill="#8c52ff" fill-opacity="1"><g transform="translate(141.136744, 80.464138)"><g><path d="M 50.921875 -7.96875 C 50.921875 -6.695312 51.34375 -5.5625 52.1875 -4.5625 C 53.039062 -3.570312 54.070312 -2.972656 55.28125 -2.765625 L 55.28125 -2.125 L 37.09375 0.53125 L 36.78125 0.53125 C 36.28125 0.53125 35.851562 0.351562 35.5 0 C 35.144531 -0.351562 34.96875 -0.78125 34.96875 -1.28125 L 34.96875 -2.875 C 32.988281 -1.875 30.773438 -1.054688 28.328125 -0.421875 C 25.878906 0.210938 23.414062 0.53125 20.9375 0.53125 C 18.457031 0.53125 16.15625 0.0507812 14.03125 -0.90625 C 11.90625 -1.863281 10.203125 -3.382812 8.921875 -5.46875 C 7.648438 -7.5625 7.015625 -10.414062 7.015625 -14.03125 L 7.015625 -43.6875 C 7.015625 -45.03125 6.585938 -46.179688 5.734375 -47.140625 C 4.890625 -48.097656 3.863281 -48.679688 2.65625 -48.890625 L 2.65625 -49.53125 L 20.828125 -52.1875 L 21.15625 -52.1875 C 22.351562 -52.1875 22.953125 -51.585938 22.953125 -50.390625 L 22.953125 -15.515625 C 22.953125 -13.742188 22.492188 -12.304688 21.578125 -11.203125 C 20.660156 -10.109375 19.738281 -9.097656 18.8125 -8.171875 C 17.894531 -7.253906 17.4375 -6.125 17.4375 -4.78125 C 17.4375 -3.644531 18.125 -2.738281 19.5 -2.0625 C 20.882812 -1.394531 22.601562 -1.0625 24.65625 -1.0625 C 27.351562 -1.0625 29.675781 -1.429688 31.625 -2.171875 C 33.570312 -2.921875 34.6875 -3.363281 34.96875 -3.5 L 34.96875 -43.6875 C 34.96875 -45.03125 34.539062 -46.179688 33.6875 -47.140625 C 32.84375 -48.097656 31.816406 -48.679688 30.609375 -48.890625 L 30.609375 -49.53125 L 48.796875 -52.1875 L 49.109375 -52.1875 C 50.316406 -52.1875 50.921875 -51.585938 50.921875 -50.390625 Z M 50.921875 -7.96875 "/></g></g></g><g fill="#8c52ff" fill-opacity="1"><g transform="translate(193.000406, 80.464138)"><g><path d="M 43.796875 -14.34375 C 44.003906 -11.582031 43.1875 -9.066406 41.34375 -6.796875 C 39.5 -4.535156 37.019531 -2.75 33.90625 -1.4375 C 30.789062 -0.125 27.390625 0.53125 23.703125 0.53125 C 20.085938 0.53125 16.773438 -0.0664062 13.765625 -1.265625 C 10.753906 -2.472656 8.328125 -4.125 6.484375 -6.21875 C 4.640625 -8.3125 3.71875 -10.664062 3.71875 -13.28125 C 3.71875 -15.550781 4.53125 -17.484375 6.15625 -19.078125 C 7.789062 -20.671875 9.707031 -21.46875 11.90625 -21.46875 C 14.175781 -21.46875 16.125 -20.671875 17.75 -19.078125 C 19.382812 -17.484375 20.203125 -15.550781 20.203125 -13.28125 C 20.203125 -11.375 19.789062 -9.90625 18.96875 -8.875 C 18.15625 -7.84375 17.320312 -6.988281 16.46875 -6.3125 C 15.625 -5.644531 15.203125 -4.851562 15.203125 -3.9375 C 15.203125 -3.15625 15.585938 -2.410156 16.359375 -1.703125 C 17.140625 -0.992188 18.066406 -0.566406 19.140625 -0.421875 C 19.847656 -0.347656 20.519531 -0.273438 21.15625 -0.203125 C 21.789062 -0.140625 22.640625 -0.109375 23.703125 -0.109375 C 25.617188 -0.109375 27.25 -0.78125 28.59375 -2.125 C 29.9375 -3.46875 30.609375 -5.097656 30.609375 -7.015625 C 30.609375 -8.785156 29.953125 -10.503906 28.640625 -12.171875 C 27.335938 -13.835938 25.675781 -15.503906 23.65625 -17.171875 C 21.632812 -18.835938 19.472656 -20.554688 17.171875 -22.328125 C 14.867188 -24.097656 12.707031 -25.921875 10.6875 -27.796875 C 8.664062 -29.671875 7 -31.6875 5.6875 -33.84375 C 4.375 -36.007812 3.71875 -38.332031 3.71875 -40.8125 C 3.71875 -43.644531 4.671875 -45.984375 6.578125 -47.828125 C 8.492188 -49.671875 10.832031 -51.035156 13.59375 -51.921875 C 16.363281 -52.804688 19.0625 -53.25 21.6875 -53.25 C 24.238281 -53.25 26.378906 -53 28.109375 -52.5 C 29.847656 -52.007812 31.40625 -51.550781 32.78125 -51.125 C 34.164062 -50.695312 35.601562 -50.519531 37.09375 -50.59375 C 37.664062 -50.664062 38.179688 -50.804688 38.640625 -51.015625 C 39.097656 -51.234375 39.46875 -51.484375 39.75 -51.765625 L 40.28125 -51.765625 L 40.28125 -34.546875 C 40.28125 -34.546875 40.226562 -34.546875 40.125 -34.546875 C 40.019531 -34.546875 39.894531 -34.546875 39.75 -34.546875 C 39.332031 -36.671875 38.625 -39.039062 37.625 -41.65625 C 36.632812 -44.28125 35.164062 -46.617188 33.21875 -48.671875 C 31.269531 -50.734375 28.5625 -51.976562 25.09375 -52.40625 C 23.25 -52.6875 21.648438 -52.332031 20.296875 -51.34375 C 18.953125 -50.351562 18.210938 -48.722656 18.078125 -46.453125 C 17.929688 -44.179688 18.65625 -42.085938 20.25 -40.171875 C 21.84375 -38.265625 23.878906 -36.367188 26.359375 -34.484375 C 28.835938 -32.609375 31.367188 -30.675781 33.953125 -28.6875 C 36.546875 -26.707031 38.765625 -24.546875 40.609375 -22.203125 C 42.453125 -19.867188 43.515625 -17.25 43.796875 -14.34375 Z M 43.796875 -14.34375 "/></g></g></g><g fill="#8c52ff" fill-opacity="1"><g transform="translate(234.554887, 80.464138)"><g><path d="M 28.703125 -3.828125 C 29.898438 -3.828125 30.960938 -4.144531 31.890625 -4.78125 L 31.890625 -4.046875 C 30.609375 -3.117188 28.867188 -2.125 26.671875 -1.0625 C 24.484375 0 21.898438 0.53125 18.921875 0.53125 C 15.660156 0.53125 12.859375 -0.632812 10.515625 -2.96875 C 8.179688 -5.3125 7.015625 -8.113281 7.015625 -11.375 L 7.015625 -51.546875 L 2.65625 -51.546875 L 2.65625 -52.1875 C 6.625 -52.1875 10.328125 -53.054688 13.765625 -54.796875 C 17.203125 -56.535156 20.054688 -58.859375 22.328125 -61.765625 L 22.953125 -61.765625 L 22.953125 -52.1875 L 29.875 -52.1875 L 29.875 -51.546875 L 22.953125 -51.546875 L 22.953125 -9.5625 C 22.953125 -8.007812 23.519531 -6.664062 24.65625 -5.53125 C 25.789062 -4.394531 27.140625 -3.828125 28.703125 -3.828125 Z M 28.703125 -3.828125 "/></g></g></g><g fill="#8c52ff" fill-opacity="1"><g transform="translate(261.974145, 80.464138)"><g><path d="M 47.40625 -7.96875 C 47.40625 -6.695312 47.828125 -5.5625 48.671875 -4.5625 C 49.523438 -3.570312 50.554688 -2.972656 51.765625 -2.765625 L 51.765625 -2.125 L 33.484375 0.53125 C 33.484375 0.53125 33.460938 0.53125 33.421875 0.53125 C 33.390625 0.53125 33.335938 0.53125 33.265625 0.53125 C 32.773438 0.53125 32.332031 0.335938 31.9375 -0.046875 C 31.550781 -0.441406 31.359375 -0.882812 31.359375 -1.375 L 31.359375 -4.046875 C 30.078125 -3.117188 28.351562 -2.125 26.1875 -1.0625 C 24.03125 0 21.46875 0.53125 18.5 0.53125 C 15.164062 0.53125 12.148438 -0.351562 9.453125 -2.125 C 6.765625 -3.894531 5.03125 -6.269531 4.25 -9.25 C 3.394531 -12.289062 3.710938 -15.265625 5.203125 -18.171875 C 6.691406 -21.078125 8.890625 -23.414062 11.796875 -25.1875 C 13.640625 -26.320312 15.976562 -27.398438 18.8125 -28.421875 C 21.644531 -29.453125 24.617188 -30.484375 27.734375 -31.515625 C 30.859375 -32.546875 33.785156 -33.609375 36.515625 -34.703125 C 39.242188 -35.804688 41.472656 -37.007812 43.203125 -38.3125 C 44.941406 -39.625 45.8125 -41.097656 45.8125 -42.734375 C 45.8125 -44.148438 45.191406 -45.566406 43.953125 -46.984375 C 42.710938 -48.398438 41.242188 -49.535156 39.546875 -50.390625 C 37.484375 -51.378906 35.210938 -52.050781 32.734375 -52.40625 C 30.253906 -52.757812 27.707031 -52.722656 25.09375 -52.296875 C 21.050781 -51.734375 19.03125 -50.390625 19.03125 -48.265625 C 19.03125 -46.984375 19.414062 -45.878906 20.1875 -44.953125 C 20.96875 -44.035156 21.726562 -43.0625 22.46875 -42.03125 C 23.21875 -41.007812 23.59375 -39.679688 23.59375 -38.046875 C 23.59375 -35.785156 22.773438 -33.859375 21.140625 -32.265625 C 19.515625 -30.671875 17.570312 -29.875 15.3125 -29.875 C 13.039062 -29.875 11.109375 -30.671875 9.515625 -32.265625 C 7.921875 -33.859375 7.125 -35.785156 7.125 -38.046875 C 7.125 -40.816406 8.078125 -43.242188 9.984375 -45.328125 C 11.898438 -47.421875 14.257812 -49.125 17.0625 -50.4375 C 19.863281 -51.75 22.503906 -52.582031 24.984375 -52.9375 C 30.648438 -53.789062 35.609375 -53.117188 39.859375 -50.921875 C 41.910156 -49.921875 43.679688 -48.515625 45.171875 -46.703125 C 46.660156 -44.898438 47.40625 -42.691406 47.40625 -40.078125 Z M 31.359375 -4.78125 L 31.359375 -32.109375 C 29.941406 -31.460938 28.363281 -30.585938 26.625 -29.484375 C 24.882812 -28.390625 23.378906 -26.90625 22.109375 -25.03125 C 20.835938 -23.15625 20.09375 -20.726562 19.875 -17.75 C 19.738281 -15.195312 19.953125 -12.945312 20.515625 -11 C 21.078125 -9.050781 21.925781 -7.472656 23.0625 -6.265625 C 24.269531 -4.992188 25.671875 -4.210938 27.265625 -3.921875 C 28.859375 -3.640625 30.222656 -3.925781 31.359375 -4.78125 Z M 31.359375 -4.78125 "/></g></g></g><g fill="#8c52ff" fill-opacity="1"><g transform="translate(310.330546, 80.464138)"><g><path d="M 36.5625 -54.3125 C 38.832031 -54.25 40.78125 -53.4375 42.40625 -51.875 C 44.039062 -50.3125 44.859375 -48.394531 44.859375 -46.125 C 44.859375 -43.863281 44.039062 -41.914062 42.40625 -40.28125 C 40.78125 -38.65625 38.832031 -37.84375 36.5625 -37.84375 C 34.363281 -37.84375 32.445312 -38.65625 30.8125 -40.28125 C 29.1875 -41.914062 28.375 -43.863281 28.375 -46.125 C 28.375 -46.84375 28.425781 -47.378906 28.53125 -47.734375 C 28.644531 -48.085938 28.703125 -48.472656 28.703125 -48.890625 C 28.703125 -49.953125 28.132812 -50.484375 27 -50.484375 C 26.007812 -50.484375 24.660156 -50.0625 22.953125 -49.21875 L 22.953125 -5.84375 C 22.953125 -4.570312 23.378906 -3.4375 24.234375 -2.4375 C 25.085938 -1.445312 26.113281 -0.847656 27.3125 -0.640625 L 27.3125 0 L 2.65625 0 L 2.65625 -0.640625 C 3.863281 -0.847656 4.890625 -1.445312 5.734375 -2.4375 C 6.585938 -3.4375 7.015625 -4.570312 7.015625 -5.84375 L 7.015625 -43.6875 C 7.015625 -45.03125 6.585938 -46.179688 5.734375 -47.140625 C 4.890625 -48.097656 3.863281 -48.679688 2.65625 -48.890625 L 2.65625 -49.53125 L 20.828125 -52.1875 C 20.898438 -52.1875 20.953125 -52.1875 20.984375 -52.1875 C 21.023438 -52.1875 21.082031 -52.1875 21.15625 -52.1875 C 21.71875 -52.1875 22.15625 -52.007812 22.46875 -51.65625 C 22.789062 -51.300781 22.953125 -50.878906 22.953125 -50.390625 L 22.953125 -49.859375 C 24.867188 -50.847656 27.101562 -51.875 29.65625 -52.9375 C 32.207031 -54 34.507812 -54.457031 36.5625 -54.3125 Z M 36.5625 -54.3125 "/></g></g></g><g fill="#8c52ff" fill-opacity="1"><g transform="translate(351.778774, 80.464138)"><g><path d="M 10.3125 0.53125 C 8.46875 0.53125 6.90625 -0.101562 5.625 -1.375 C 4.351562 -2.65625 3.71875 -4.21875 3.71875 -6.0625 C 3.71875 -7.90625 4.351562 -9.476562 5.625 -10.78125 C 6.90625 -12.09375 8.46875 -12.75 10.3125 -12.75 C 12.15625 -12.75 13.726562 -12.09375 15.03125 -10.78125 C 16.34375 -9.476562 17 -7.90625 17 -6.0625 C 17 -4.21875 16.34375 -2.65625 15.03125 -1.375 C 13.726562 -0.101562 12.15625 0.53125 10.3125 0.53125 Z M 10.3125 0.53125 "/></g></g></g></g></g></svg>