<?xml version="1.0" standalone="no"?>
<!DOCTYPE svg PUBLIC "-//W3C//DTD SVG 20010904//EN"
 "http://www.w3.org/TR/2001/REC-SVG-20010904/DTD/svg10.dtd">
<svg version="1.0" xmlns="http://www.w3.org/2000/svg"
 width="134.000000pt" height="142.000000pt" viewBox="0 0 134.000000 142.000000"
 preserveAspectRatio="xMidYMid meet">

<g transform="translate(0.000000,142.000000) scale(0.100000,-0.100000)"
fill="#000000" stroke="none">
<path d="M0 710 l0 -710 670 0 670 0 0 710 0 710 -670 0 -670 0 0 -710z m1190
435 l0 -155 -457 0 c-425 0 -461 2 -499 19 -108 49 -114 208 -12 271 32 19 52
20 501 20 l467 0 0 -155z m8 -452 l-3 -158 -210 0 c-232 0 -252 4 -295 65 -24
34 -36 95 -26 134 9 34 54 86 91 102 22 10 88 13 238 14 l208 0 -3 -157z m-8
-458 l0 -155 -471 0 c-465 0 -472 0 -507 22 -94 58 -94 210 0 268 32 19 52 20
506 20 l472 0 0 -155z"/>
</g>
</svg>
