<svg xmlns="http://www.w3.org/2000/svg" xmlns:xlink="http://www.w3.org/1999/xlink" width="40" zoomAndPan="magnify" viewBox="0 0 30 30.750001" height="41" preserveAspectRatio="xMidYMid meet" version="1.0"><defs><clipPath id="fff5800a1b"><path d="M 0.589844 0.894531 L 29.605469 0.894531 L 29.605469 29.90625 L 0.589844 29.90625 Z M 0.589844 0.894531 " clip-rule="nonzero"/></clipPath><clipPath id="d0a05b8774"><path d="M 5.597656 5.773438 L 24.300781 5.773438 L 24.300781 24.476562 L 5.597656 24.476562 Z M 5.597656 5.773438 " clip-rule="nonzero"/></clipPath><clipPath id="9a4f63e273"><path d="M 14.949219 5.773438 C 9.785156 5.773438 5.597656 9.960938 5.597656 15.125 C 5.597656 20.289062 9.785156 24.476562 14.949219 24.476562 C 20.113281 24.476562 24.300781 20.289062 24.300781 15.125 C 24.300781 9.960938 20.113281 5.773438 14.949219 5.773438 Z M 14.949219 5.773438 " clip-rule="nonzero"/></clipPath><clipPath id="1d254588e4"><path d="M 0.597656 0.773438 L 19.300781 0.773438 L 19.300781 19.476562 L 0.597656 19.476562 Z M 0.597656 0.773438 " clip-rule="nonzero"/></clipPath><clipPath id="5f46808fb9"><path d="M 9.949219 0.773438 C 4.785156 0.773438 0.597656 4.960938 0.597656 10.125 C 0.597656 15.289062 4.785156 19.476562 9.949219 19.476562 C 15.113281 19.476562 19.300781 15.289062 19.300781 10.125 C 19.300781 4.960938 15.113281 0.773438 9.949219 0.773438 Z M 9.949219 0.773438 " clip-rule="nonzero"/></clipPath><clipPath id="7192897312"><rect x="0" width="20" y="0" height="20"/></clipPath><clipPath id="21555e03ad"><path d="M 11 7.917969 L 26.210938 7.917969 L 26.210938 22.796875 L 11 22.796875 Z M 11 7.917969 " clip-rule="nonzero"/></clipPath><clipPath id="5c8e5ffb7d"><path d="M 3.890625 7.917969 L 19 7.917969 L 19 22.796875 L 3.890625 22.796875 Z M 3.890625 7.917969 " clip-rule="nonzero"/></clipPath></defs><g clip-path="url(#fff5800a1b)"><path fill="#503be1" d="M 9.851562 0.894531 L 20.039062 0.894531 C 20.648438 0.894531 21.25 0.953125 21.847656 1.070312 C 22.441406 1.1875 23.023438 1.363281 23.585938 1.597656 C 24.144531 1.832031 24.679688 2.117188 25.183594 2.453125 C 25.691406 2.792969 26.160156 3.175781 26.589844 3.605469 C 27.019531 4.035156 27.402344 4.503906 27.742188 5.007812 C 28.078125 5.515625 28.363281 6.046875 28.597656 6.609375 C 28.828125 7.171875 29.003906 7.75 29.125 8.347656 C 29.242188 8.945312 29.300781 9.546875 29.300781 10.15625 L 29.300781 20.34375 C 29.300781 20.949219 29.242188 21.554688 29.125 22.148438 C 29.003906 22.746094 28.828125 23.324219 28.597656 23.886719 C 28.363281 24.449219 28.078125 24.984375 27.742188 25.488281 C 27.402344 25.992188 27.019531 26.460938 26.589844 26.890625 C 26.160156 27.320312 25.691406 27.707031 25.183594 28.042969 C 24.679688 28.382812 24.144531 28.667969 23.585938 28.898438 C 23.023438 29.132812 22.441406 29.308594 21.847656 29.425781 C 21.25 29.546875 20.648438 29.605469 20.039062 29.605469 L 9.851562 29.605469 C 9.242188 29.605469 8.640625 29.546875 8.042969 29.425781 C 7.449219 29.308594 6.871094 29.132812 6.308594 28.898438 C 5.746094 28.667969 5.210938 28.382812 4.707031 28.042969 C 4.199219 27.707031 3.734375 27.320312 3.300781 26.890625 C 2.871094 26.460938 2.488281 25.992188 2.152344 25.488281 C 1.8125 24.984375 1.527344 24.449219 1.292969 23.886719 C 1.0625 23.324219 0.886719 22.746094 0.769531 22.148438 C 0.648438 21.554688 0.589844 20.949219 0.589844 20.34375 L 0.589844 10.15625 C 0.589844 9.546875 0.648438 8.945312 0.769531 8.347656 C 0.886719 7.75 1.0625 7.171875 1.292969 6.609375 C 1.527344 6.046875 1.8125 5.515625 2.152344 5.007812 C 2.488281 4.503906 2.871094 4.035156 3.300781 3.605469 C 3.734375 3.175781 4.199219 2.792969 4.707031 2.453125 C 5.210938 2.117188 5.746094 1.832031 6.308594 1.597656 C 6.871094 1.363281 7.449219 1.1875 8.042969 1.070312 C 8.640625 0.953125 9.242188 0.894531 9.851562 0.894531 Z M 9.851562 0.894531 " fill-opacity="1" fill-rule="nonzero"/></g><path fill="#fffdfa" d="M 19.996094 13.332031 C 19.964844 13.277344 19.921875 13.234375 19.871094 13.203125 C 19.816406 13.171875 19.757812 13.15625 19.699219 13.15625 L 15.222656 13.15625 L 15.972656 7.300781 C 15.980469 7.222656 15.964844 7.144531 15.921875 7.078125 C 15.882812 7.011719 15.820312 6.960938 15.746094 6.933594 C 15.675781 6.90625 15.59375 6.90625 15.523438 6.929688 C 15.449219 6.957031 15.386719 7.007812 15.34375 7.074219 L 9.902344 16.8125 C 9.871094 16.863281 9.851562 16.925781 9.851562 16.988281 C 9.851562 17.046875 9.867188 17.109375 9.894531 17.164062 C 9.925781 17.21875 9.96875 17.261719 10.019531 17.292969 C 10.074219 17.324219 10.132812 17.34375 10.191406 17.34375 L 14.601562 17.34375 L 14.007812 23.207031 C 14 23.285156 14.019531 23.363281 14.0625 23.429688 C 14.105469 23.492188 14.167969 23.542969 14.242188 23.566406 C 14.3125 23.589844 14.390625 23.589844 14.464844 23.5625 C 14.535156 23.539062 14.597656 23.488281 14.640625 23.421875 L 19.992188 13.683594 C 20.023438 13.632812 20.039062 13.570312 20.039062 13.507812 C 20.039062 13.445312 20.023438 13.386719 19.996094 13.332031 Z M 19.996094 13.332031 " fill-opacity="1" fill-rule="nonzero"/><g clip-path="url(#d0a05b8774)"><g clip-path="url(#9a4f63e273)"><g transform="matrix(1, 0, 0, 1, 5, 5)"><g clip-path="url(#7192897312)"><g clip-path="url(#1d254588e4)"><g clip-path="url(#5f46808fb9)"><path fill="#503be1" d="M 0.597656 0.773438 L 19.300781 0.773438 L 19.300781 19.476562 L 0.597656 19.476562 Z M 0.597656 0.773438 " fill-opacity="1" fill-rule="nonzero"/></g></g></g></g></g></g><g clip-path="url(#21555e03ad)"><path fill="#fffdfa" d="M 18.769531 22.503906 L 18.769531 19.960938 C 18.769531 19.921875 18.800781 19.886719 18.84375 19.886719 C 21.367188 19.847656 23.410156 17.78125 23.410156 15.25 C 23.410156 12.6875 21.328125 10.609375 18.769531 10.609375 C 16.234375 10.609375 14.167969 12.652344 14.128906 15.175781 C 14.128906 15.214844 14.097656 15.246094 14.058594 15.246094 L 11.515625 15.246094 C 11.472656 15.246094 11.441406 15.214844 11.441406 15.171875 C 11.449219 14.210938 11.644531 13.277344 12.015625 12.394531 C 12.386719 11.523438 12.914062 10.738281 13.585938 10.066406 C 14.261719 9.390625 15.042969 8.863281 15.917969 8.496094 C 16.820312 8.113281 17.78125 7.917969 18.769531 7.917969 C 19.757812 7.917969 20.71875 8.113281 21.621094 8.496094 C 22.496094 8.863281 23.277344 9.390625 23.953125 10.066406 C 24.625 10.738281 25.152344 11.523438 25.523438 12.394531 C 25.90625 13.300781 26.097656 14.257812 26.097656 15.246094 C 26.097656 16.234375 25.902344 17.195312 25.523438 18.101562 C 25.152344 18.972656 24.625 19.757812 23.953125 20.429688 C 23.277344 21.101562 22.496094 21.628906 21.621094 22 C 20.742188 22.371094 19.804688 22.566406 18.84375 22.574219 C 18.804688 22.578125 18.769531 22.542969 18.769531 22.503906 Z M 18.769531 22.503906 " fill-opacity="1" fill-rule="nonzero"/></g><g clip-path="url(#5c8e5ffb7d)"><path fill="#fffdfa" d="M 11.226562 22.578125 C 10.238281 22.578125 9.277344 22.382812 8.375 22 C 7.5 21.632812 6.71875 21.105469 6.042969 20.429688 C 5.371094 19.757812 4.84375 18.976562 4.472656 18.101562 C 4.089844 17.195312 3.898438 16.238281 3.898438 15.25 C 3.898438 14.261719 4.09375 13.300781 4.472656 12.394531 C 4.84375 11.523438 5.371094 10.738281 6.042969 10.066406 C 6.71875 9.394531 7.5 8.867188 8.375 8.496094 C 9.253906 8.125 10.191406 7.929688 11.152344 7.921875 C 11.195312 7.917969 11.226562 7.953125 11.226562 7.992188 L 11.226562 10.535156 C 11.226562 10.578125 11.195312 10.609375 11.15625 10.609375 C 8.628906 10.648438 6.585938 12.714844 6.585938 15.25 C 6.585938 17.808594 8.667969 19.886719 11.226562 19.886719 C 13.761719 19.886719 15.828125 17.847656 15.867188 15.320312 C 15.867188 15.28125 15.898438 15.25 15.941406 15.25 L 18.480469 15.25 C 18.523438 15.25 18.554688 15.285156 18.554688 15.324219 C 18.546875 16.285156 18.351562 17.21875 17.980469 18.101562 C 17.609375 18.976562 17.082031 19.757812 16.410156 20.433594 C 15.738281 21.105469 14.953125 21.632812 14.078125 22 C 13.175781 22.382812 12.214844 22.578125 11.226562 22.578125 Z M 11.226562 22.578125 " fill-opacity="1" fill-rule="nonzero"/></g><path fill="#fffdfa" d="M 21.335938 20.601562 C 21.3125 20.601562 21.285156 20.597656 21.253906 20.59375 C 21.214844 20.582031 21.175781 20.566406 21.148438 20.546875 C 21.121094 20.527344 21.105469 20.507812 21.109375 20.488281 C 21.113281 20.46875 21.136719 20.457031 21.171875 20.449219 C 21.203125 20.445312 21.246094 20.449219 21.289062 20.457031 C 21.328125 20.46875 21.367188 20.484375 21.394531 20.503906 C 21.421875 20.523438 21.4375 20.542969 21.433594 20.5625 C 21.429688 20.582031 21.40625 20.59375 21.371094 20.601562 C 21.363281 20.601562 21.351562 20.601562 21.335938 20.601562 Z M 21.207031 20.457031 C 21.195312 20.457031 21.183594 20.457031 21.171875 20.460938 C 21.140625 20.464844 21.125 20.476562 21.121094 20.488281 C 21.117188 20.503906 21.128906 20.523438 21.152344 20.539062 C 21.179688 20.558594 21.21875 20.574219 21.257812 20.582031 C 21.300781 20.59375 21.339844 20.597656 21.371094 20.589844 C 21.402344 20.585938 21.421875 20.574219 21.421875 20.5625 C 21.425781 20.546875 21.414062 20.527344 21.390625 20.511719 C 21.363281 20.492188 21.324219 20.476562 21.285156 20.46875 C 21.257812 20.460938 21.230469 20.457031 21.207031 20.457031 Z M 21.207031 20.457031 " fill-opacity="1" fill-rule="nonzero"/></svg>